<?xml version="1.0" encoding="utf-8"?>
<!-- Generator: Adobe Illustrator 16.0.4, SVG Export Plug-In . SVG Version: 6.00 Build 0)  -->
<!DOCTYPE svg PUBLIC "-//W3C//DTD SVG 1.1//EN" "http://www.w3.org/Graphics/SVG/1.1/DTD/svg11.dtd">
<svg version="1.1" id="Layer_1" xmlns="http://www.w3.org/2000/svg" xmlns:xlink="http://www.w3.org/1999/xlink" x="0px" y="0px"
	 width="211.081px" height="52.197px" viewBox="27.372 28.308 211.081 52.197"   preserveAspectRatio="xMinYMin meet"
	 enable-background="new 27.372 28.308 211.081 52.197" xml:space="preserve">
<g>
	<path fill="#FFFFFF" d="M164.164,46.776c0-3.413,2.854-2.434,2.854-3.334c0-0.472-0.235-0.55-0.746-0.55
		c-0.584,0-1.521,0.156-3.75,0.156c-1.916,0-3.127-0.156-3.948-0.156c-0.507,0-0.78,0.078-0.78,0.509
		c0,0.787,3.281,0.511,3.281,2.552v19.9c0,1.845-0.075,2.942-1.096,3.414c-1.25,0.627-1.641,0.551-1.717,1.021
		c0,0.314,0.234,0.393,0.586,0.393c1.562,0,3.205-0.117,4.769-0.156c2.971-0.078,6.956,0.156,9.927,0.156
		c1.719,0,2.579,0.076,3.832-1.336c0.936-1.02,1.954-2.393,1.954-3.806c0-0.079-0.041-0.472-0.313-0.472
		c-0.509,0-2.851,4.043-11.884,4.043c-3.28,0-2.967-0.941-2.967-3.258L164.164,46.776L164.164,46.776z"/>
	<path fill="#FFFFFF" d="M137.331,57.838c0.313,0.471,0.901,1.255,0.901,2.001v7.504c0,2.79-3.012,1.769-3.012,2.87
		c0,0.43,0.234,0.469,0.588,0.469c0.352,0,1.758-0.156,3.518-0.156c1.445,0,3.711,0.156,4.299,0.156c0.547,0,0.9-0.039,0.9-0.393
		c0-1.219-3.207-0.116-3.207-3.533v-7.625c0-0.587,0.313-0.783,0.938-1.766l6.707-10.592c0.626-0.98,1.134-2.083,2.188-2.709
		c0.274-0.157,0.938-0.314,0.938-0.744c0-0.198-0.195-0.473-0.432-0.473c-1.131,0-2.266,0.156-3.398,0.156
		c-0.939,0-1.918-0.156-2.854-0.156c-0.43,0-0.82,0.078-0.82,0.589c0,0.942,2.932,0.118,2.932,2.042c0,1.06-0.547,1.727-0.82,2.161
		l-5.262,8.589c-0.312,0.51-0.545,0.785-0.742,0.785c-0.233,0-0.469-0.233-0.781-0.707l-6.01-9.566
		c-0.232-0.352-0.701-0.982-0.701-1.611c0-1.137,1.836-1.176,1.836-1.841c0-0.355-0.469-0.394-0.742-0.394
		c-0.393,0-1.445,0.156-2.736,0.156c-2.658,0-3.4-0.156-4.457-0.156c-0.271,0-0.509,0.313-0.509,0.588
		c0,0.667,1.917,0.196,2.934,1.883L137.331,57.838z"/>
	<path fill="#FFFFFF" d="M124.679,68.406c-0.9-1.374-1.37-3.022-1.955-4.477l-8.129-20.216c-0.117-0.313-0.392-1.45-0.821-1.45
		c-0.509,0-0.626,0.627-2.932,5.572l-9.343,20.02c-1.016,2.235-2.854,1.568-2.854,2.395c0,0.234,0.117,0.432,0.354,0.432
		c1.016,0,2.071-0.156,3.125-0.156c1.096,0,2.19,0.156,3.284,0.156c0.508,0,1.056,0.12,1.056-0.591c0-1.021-2.775,0.159-2.775-2.589
		c0-0.51,0.157-1.1,0.273-1.375l2.06-4.521c0.392-0.822,1.096-0.822,1.836-0.822l9.438,0.134c1.094,0,1.329,0.585,1.72,1.49
		l0.855,2.11c0.389,1.059,1.21,2.865,1.21,3.731c0,1.491-2.346,1.096-2.346,2.039c0,0.394,0.625,0.394,0.861,0.394
		c1.055,0,2.109-0.158,3.165-0.158c1.603,0,3.205,0.158,4.81,0.158c0.273,0,0.547,0,0.547-0.354
		C128.119,69.346,125.85,70.213,124.679,68.406z M116.71,59.189l-8.576-0.133c-0.51,0-0.782-0.156-0.51-0.707l4.859-10.513
		c0.234-0.469,0.43-0.469,0.625,0l4.229,10.567C117.531,58.914,117.571,59.189,116.71,59.189z"/>
	<path fill="#FFFFFF" d="M89.759,55.139c0-0.274,3.673-1.568,3.673-5.575c0-2.903-1.719-6.671-8.6-6.671
		c-3.126,0-4.689,0.156-6.253,0.156s-2.345-0.156-3.127-0.156c-0.468,0-1.056-0.041-1.056,0.55c0,0.784,3.48,0.39,3.48,3.373v19.312
		c0,3.062-1.368,3.258-1.799,3.377c-0.703,0.236-1.172,0.354-1.172,0.745c0,0.354,0.782,0.432,0.977,0.432
		c1.799,0,3.635-0.156,5.433-0.156c1.33,0,3.675,0.156,5.082,0.156c7.621,0,9.5-5.729,9.5-8.322
		C95.896,55.846,89.759,55.727,89.759,55.139z M83.23,44.188c3.947,0,7.506,2.393,7.506,6.632c0,1.843-0.313,4.239-6.724,4.239
		c-3.519,0-3.049-0.195-3.049-1.453V47.13C80.963,44.855,80.769,44.188,83.23,44.188z M86.318,69.621
		c-5.549,0-5.354-0.824-5.354-3.648v-8.795c0-0.352-0.195-0.902,2.814-0.902c8.988,0,9.147,5.025,9.147,7.537
		C92.925,66.167,91.517,69.621,86.318,69.621z"/>
	<path fill="#FFFFFF" d="M195.122,42.539c-8.013,0-14.347,5.927-14.347,14.09c0,8.281,5.199,14.327,13.681,14.327
		c8.72,0,14.776-5.69,14.776-14.522C209.232,48.307,203.096,42.539,195.122,42.539z M196.102,69.777
		c-7.742,0-12.473-7.024-12.473-14.285c0-6.204,3.754-11.66,10.32-11.66c7.621,0,12.431,6.949,12.431,14.093
		C206.38,65.188,201.807,69.777,196.102,69.777z"/>
	<path fill="#FFFFFF" d="M233.725,66.4l-6.529-9.928c2.74-1.101,4.926-3.73,4.926-6.792c0-7.574-8.639-6.789-9.262-6.789
		c-2.035,0-4.264,0.156-6.527,0.156c-1.995,0-1.803-0.156-2.505-0.156c-0.466,0-0.779,0.234-0.779,0.471
		c0,1.332,3.36-0.275,3.36,3.492v19.979c0,2.984-2.852,2.434-2.852,3.415c0,0.235,0.153,0.433,0.389,0.433
		c1.484,0,2.97-0.156,4.455-0.156c3.244,0,4.146,0.156,4.494,0.156c0.316,0,0.664,0.076,0.664-0.313
		c0-1.334-4.063-0.119-4.063-3.495v-8.282c0-0.392-0.231-1.1,1.019-1.1c4.379,0,3.791-0.118,5.198,2.081l4.338,6.869
		c1.486,2.235,3.011,4.24,5.862,4.24c0.352,0,2.541,0,2.541-0.47C238.452,69.268,236.536,70.721,233.725,66.4z M223.756,56.159
		c-1.836,0-4.262,0.196-4.262-0.55v-9.97c0-1.532,0.822-1.451,2.229-1.451c3.834,0,7.467,1.605,7.467,6.398
		C229.188,55.451,225.436,56.159,223.756,56.159z"/>
</g>
<g>
	<path fill="#003015" d="M59.21,80.505H27.372V36.394l0.263-0.396c3.145-4.745,9.145-7.69,15.658-7.69
		c3.232,0,6.398,0.725,9.16,2.093c2.717,1.353,4.961,3.285,6.494,5.59l0.263,0.397V80.505z"/>
	<path fill="#FECB00" d="M57.628,36.866c-2.758-4.155-8.145-6.975-14.337-6.975c-6.194,0-11.58,2.822-14.338,6.98v42.053h28.675
		V36.866z"/>
	<path fill="#003015" d="M39.899,52.4l1.211-0.146c0.038-0.002,0.067-0.038,0.067-0.083v-5.314c0-0.467-0.178-0.854-0.494-0.935
		c-0.049-0.016-0.096-0.022-0.145-0.022c-0.397,0-0.722,0.426-0.722,0.953v5.476c0,0.035,0.024,0.061,0.053,0.063
		C39.878,52.397,39.888,52.4,39.899,52.4 M53.641,69.872c0,0-0.023-0.075-0.023-0.092s-0.022-0.058-0.022-0.075
		c0-0.014-0.026-0.098-0.042-0.118c-0.017-0.022-0.03-0.08-0.045-0.101c-0.013-0.019-0.055-0.086-0.073-0.107
		c-0.021-0.023-0.081-0.053-0.105-0.05c-0.024,0-0.068-0.006-0.1-0.015c-0.028-0.006-0.29,0.026-0.312,0.026
		c-0.018,0.002-0.046-0.03-0.063-0.046c-0.016-0.021-0.051-0.043-0.051-0.043s-0.082-0.023-0.119-0.023
		c-0.039,0-0.074,0.014-0.139,0.023c-0.068,0.01-0.153-0.021-0.153-0.021s-0.036-0.035-0.056-0.041
		c-0.022-0.006-0.076-0.014-0.097-0.008c-0.024,0.002-0.064,0-0.064,0l-0.027-0.029c0,0-0.017-0.051-0.035-0.066
		c-0.022-0.018-0.054-0.097-0.054-0.097s-0.008-0.083-0.021-0.108c-0.008-0.023-0.033-0.123-0.04-0.146
		c-0.006-0.021-0.015-0.086-0.019-0.119c0-0.035-0.023-0.146-0.029-0.182c-0.01-0.037-0.042-0.121-0.056-0.134
		c-0.019-0.015-0.077-0.071-0.077-0.071l-0.024-0.066c0,0-0.04-0.08-0.075-0.098c-0.032-0.015-0.145-0.143-0.145-0.143
		s-0.018-0.085-0.021-0.097c-0.007-0.017-0.032-0.123-0.044-0.15c-0.013-0.026-0.036-0.099-0.048-0.116
		c-0.011-0.019-0.029-0.07-0.049-0.104c-0.021-0.029-0.044-0.098-0.065-0.123c-0.019-0.023-0.055-0.121-0.071-0.143
		c-0.011-0.025-0.085-0.19-0.096-0.207c-0.011-0.018-0.05-0.156-0.063-0.174c-0.013-0.019-0.071-0.146-0.081-0.168
		c-0.015-0.021-0.09-0.231-0.101-0.285c-0.011-0.055-0.082-0.176-0.096-0.205c-0.014-0.032-0.127-0.241-0.233-0.35
		c-0.109-0.115-0.13-0.166-0.13-0.166c0-0.025-0.02-0.066-0.037-0.096c-0.018-0.025-0.042-0.074-0.073-0.107
		c-0.033-0.039-0.06-0.106-0.079-0.14c-0.022-0.032-0.072-0.12-0.109-0.165c-0.038-0.048-0.109-0.157-0.141-0.193
		c-0.029-0.029-0.055-0.125-0.078-0.162c-0.026-0.041-0.054-0.108-0.067-0.155c-0.015-0.043-0.069-0.163-0.096-0.208
		c-0.022-0.049-0.062-0.109-0.075-0.129c-0.011-0.02-0.057-0.084-0.122-0.154c-0.069-0.08-0.103-0.141-0.141-0.193
		c-0.036-0.05-0.075-0.082-0.075-0.082s-0.028-0.078-0.04-0.1c-0.01-0.021-0.056-0.135-0.088-0.205
		c-0.038-0.068-0.093-0.178-0.117-0.217c-0.023-0.034-0.061-0.074-0.085-0.092c-0.025-0.021-0.073-0.115-0.073-0.115
		s-0.062-0.096-0.066-0.107c-0.009-0.014-0.104-0.136-0.135-0.178c-0.028-0.038-0.139-0.209-0.16-0.24
		c-0.018-0.029-0.064-0.082-0.097-0.097c-0.037-0.009-0.106-0.079-0.126-0.087c-0.019-0.01-0.064-0.069-0.069-0.092
		c-0.007-0.023-0.026-0.103-0.046-0.122c-0.02-0.025-0.037-0.095-0.046-0.115c-0.01-0.021-0.046-0.069-0.068-0.101
		c-0.016-0.028-0.039-0.096-0.055-0.143c-0.019-0.043-0.073-0.146-0.095-0.197c-0.027-0.057-0.063-0.099-0.101-0.158
		c-0.042-0.058-0.099-0.182-0.103-0.207c-0.008-0.027-0.026-0.088-0.039-0.11c-0.014-0.022-0.09-0.084-0.126-0.106
		c-0.039-0.022-0.071-0.065-0.083-0.091c-0.009-0.028,0-0.061,0.008-0.09c0.005-0.03,0-0.112-0.01-0.146
		c-0.007-0.033-0.07-0.127-0.082-0.146c-0.009-0.021-0.067-0.094-0.083-0.102c-0.02-0.012-0.044-0.043-0.058-0.055
		c-0.016-0.012-0.042-0.033-0.055-0.054c-0.009-0.017-0.085-0.073-0.096-0.084c-0.013-0.012-0.094-0.078-0.121-0.09
		c-0.026-0.015-0.073-0.034-0.098-0.034c-0.022,0-0.068,0.021-0.068,0.021s-0.028-0.028-0.056-0.047
		c-0.024-0.018-0.093-0.057-0.117-0.057c-0.023-0.004-0.091-0.042-0.117-0.05c-0.025-0.011-0.14-0.027-0.14-0.027l-0.098-0.03
		c0,0-0.099-0.047-0.112-0.056c-0.018-0.01-0.121-0.026-0.121-0.026s-0.071-0.025-0.085-0.032c-0.014-0.007-0.067-0.013-0.092-0.013
		c-0.023-0.006-0.147-0.033-0.168-0.033c-0.017,0-0.059-0.033-0.059-0.033c-0.03-0.033-0.146-0.098-0.167-0.118
		c-0.02-0.019-0.121-0.126-0.149-0.158c-0.024-0.022-0.196-0.161-0.228-0.184c-0.037-0.026-0.21-0.156-0.23-0.171
		c-0.021-0.01-0.083-0.147-0.096-0.192c-0.016-0.048-0.116-0.205-0.177-0.276c-0.061-0.074-0.188-0.143-0.188-0.143l-0.033-0.016
		l-0.013-0.041l0.002-0.152c0.041-0.059,0.079-0.201,0.09-0.273c0.011-0.076,0.017-0.158,0.017-0.195s0.006-0.061,0.018-0.075
		c0.014-0.015,0.036-0.002,0.036-0.002s0.015,0.012,0.067,0.024c0.053,0.019,0.082-0.008,0.112-0.045
		c0.024-0.033,0.016-0.067,0.016-0.112c0.004-0.044,0.03-0.104,0.042-0.125c0.017-0.03,0.095-0.08,0.103-0.103
		c0.012-0.02,0.061-0.031,0.083-0.048c0.018-0.016,0.058-0.034,0.058-0.034s0.016-0.031,0.04-0.052
		c0.017-0.017,0.032-0.028,0.032-0.058s-0.002-0.074,0.014-0.088c0.016-0.021,0.023-0.057,0.024-0.092
		c0.004-0.029,0.021-0.067,0.031-0.101c0.009-0.036,0.029-0.069,0.04-0.101c0.007-0.032,0.011-0.086,0.005-0.099
		c-0.005-0.012-0.007-0.065-0.007-0.085c0-0.018-0.02-0.061-0.029-0.074c-0.009-0.012-0.011-0.068-0.009-0.092
		c0.004-0.021-0.015-0.051-0.022-0.066c-0.008-0.01-0.009-0.043-0.02-0.082c-0.009-0.039-0.016-0.025-0.028-0.041
		c-0.016-0.018-0.024-0.084-0.037-0.115c-0.013-0.036-0.025-0.088-0.037-0.12c-0.011-0.029-0.067-0.093-0.094-0.114
		c-0.029-0.019-0.042-0.025-0.042-0.025s0-0.144-0.002-0.181c0-0.045-0.015-0.11-0.018-0.129c-0.009-0.021-0.029-0.071-0.064-0.102
		c-0.035-0.027-0.128-0.104-0.155-0.119c-0.032-0.019-0.093-0.069-0.113-0.093s-0.08-0.088-0.102-0.103
		c-0.024-0.019-0.065-0.06-0.081-0.079c-0.011-0.015-0.05-0.035-0.064-0.051c-0.016-0.013-0.091-0.054-0.108-0.072
		c-0.023-0.015-0.068-0.046-0.086-0.057c-0.019-0.005-0.119-0.049-0.138-0.055c-0.016,0-0.098-0.021-0.12-0.027
		c-0.026-0.006-0.144-0.047-0.184-0.051c-0.035-0.001-0.144-0.008-0.205-0.001c-0.059,0.006-0.078,0.026-0.112,0.03
		c-0.034,0.008-0.114,0.057-0.114,0.057s-0.043,0.017-0.083,0.025c-0.037,0.01-0.131,0.074-0.146,0.097
		c-0.01,0.018-0.075,0.089-0.075,0.089l-0.062,0.01c-0.048,0.006-0.128,0.053-0.128,0.053c-0.064-0.004-0.121,0.039-0.133,0.039
		c-0.015,0.002-0.085,0.038-0.085,0.038s-0.031,0.007-0.116,0.058c-0.085,0.05-0.217,0.216-0.233,0.238
		c-0.012,0.029-0.084,0.184-0.083,0.204c0,0.021-0.021,0.076-0.021,0.076s-0.014,0.037-0.021,0.062
		c-0.013,0.021-0.032,0.078-0.05,0.105c-0.019,0.029-0.019,0.069-0.039,0.077c-0.019,0.011-0.052,0.047-0.071,0.062
		c-0.018,0.014-0.057,0.062-0.077,0.094c-0.024,0.035-0.043,0.074-0.06,0.101c-0.016,0.024-0.023,0.113-0.023,0.113
		s-0.009,0.038-0.026,0.057c-0.015,0.021-0.019,0.063-0.02,0.093c-0.003,0.029-0.007,0.154-0.007,0.154s-0.005,0.062-0.01,0.078
		c0,0,0,0.113-0.008,0.148c-0.004,0.029,0.015,0.181,0.033,0.207c0.017,0.024,0.081,0.076,0.094,0.09
		c0.015,0.013,0.085,0.064,0.112,0.078c0.021,0.015,0.044,0.043,0.064,0.043c0.012,0,0.025,0,0.034,0.012
		c0.01,0.017,0.022,0.01,0.041,0.008c0.017,0,0.03,0.025,0.048,0.033c0.015,0.005,0.015,0.021,0.022,0.04
		c0.005,0.021,0.02,0.071,0.027,0.09c0.001,0.021,0.033,0.104,0.041,0.129c0.01,0.021,0.017,0.103,0.036,0.142
		c0.029,0.043,0.072,0.059,0.098,0.056c0.027-0.005,0.056-0.031,0.056-0.031l-0.004,0.088c0,0,0.004,0.123,0.008,0.163
		c0.003,0.04,0.049,0.193,0.049,0.193s0.014,0.039,0.014,0.058c0,0.021,0.007,0.07,0.007,0.07s-0.043,0.013-0.071,0.028
		c-0.029,0.02-0.113,0.06-0.137,0.086c-0.026,0.023-0.091,0.153-0.101,0.185c-0.012,0.03-0.081,0.157-0.104,0.192
		c-0.024,0.037-0.084,0.135-0.114,0.172c-0.035,0.037-0.129,0.121-0.176,0.166c-0.044,0.052-0.194,0.177-0.229,0.213
		c-0.037,0.035-0.067,0.083-0.067,0.083s-0.017,0.011-0.03,0.02c-0.02,0.011-0.076,0.041-0.133,0.066
		c-0.058,0.026-0.106,0.058-0.163,0.073c-0.058,0.022-0.129,0.054-0.141,0.056c-0.013,0.009-0.065,0.011-0.084,0.017
		c-0.02,0.004-0.04,0.01-0.04,0.01s-0.039,0.018-0.057,0.018c-0.023,0-0.057,0.018-0.073,0.018c-0.018,0-0.061,0.015-0.088,0.017
		c-0.027,0-0.067,0.017-0.088,0.017c-0.019,0-0.068,0.026-0.094,0.026c-0.028,0.003-0.051,0.016-0.067,0.026
		c-0.016,0.01-0.061,0.021-0.084,0.028c-0.021,0.009-0.083,0.021-0.102,0.035c-0.016,0.015-0.042,0.033-0.069,0.041
		c-0.029,0.008-0.06,0.042-0.072,0.05c-0.014,0.008-0.036,0.018-0.056,0.016c-0.022-0.004-0.063,0.002-0.096,0.002
		c-0.034,0.002-0.142,0.059-0.185,0.08c-0.04,0.02-0.109,0.101-0.128,0.125c-0.013,0.031-0.086,0.136-0.113,0.18
		c-0.024,0.043-0.05,0.101-0.084,0.145c-0.033,0.045-0.059,0.113-0.069,0.133c-0.009,0.021-0.052,0.142-0.049,0.133
		c-0.008,0.024-0.058,0.146-0.058,0.146s-0.055,0.05-0.068,0.071c-0.014,0.02-0.069,0.174-0.071,0.197
		c-0.004,0.021-0.04,0.093-0.057,0.125c-0.017,0.031-0.085,0.174-0.085,0.174s-0.006,0.047-0.019,0.078
		c-0.012,0.031-0.036,0.121-0.055,0.16c-0.02,0.043-0.031,0.262-0.031,0.262s-0.016,0.033-0.033,0.076
		c-0.015,0.037-0.035,0.154-0.035,0.154s-0.02,0.026-0.037,0.049c-0.02,0.023-0.054,0.082-0.071,0.107
		c-0.017,0.025-0.045,0.061-0.074,0.107c-0.029,0.049-0.046,0.063-0.064,0.101c-0.014,0.03-0.062,0.099-0.073,0.128
		c-0.012,0.03-0.057,0.1-0.075,0.135c-0.021,0.034-0.033,0.09-0.053,0.131c-0.019,0.039-0.077,0.142-0.093,0.172
		c-0.019,0.037-0.021,0.094-0.04,0.125c-0.017,0.029-0.07,0.174-0.072,0.201c-0.007,0.027-0.077,0.179-0.087,0.215
		c-0.01,0.035-0.047,0.132-0.055,0.168c-0.012,0.037-0.067,0.143-0.083,0.168c-0.017,0.024-0.048,0.092-0.067,0.111
		c-0.015,0.026-0.086,0.096-0.106,0.133c-0.018,0.031-0.086,0.127-0.094,0.144c-0.004,0.013-0.044,0.077-0.056,0.103
		c-0.007,0.026-0.064,0.119-0.084,0.144c-0.019,0.028-0.059,0.134-0.084,0.179c-0.024,0.049-0.077,0.188-0.077,0.204
		s-0.055,0.118-0.073,0.136c-0.015,0.02-0.055,0.148-0.067,0.174c-0.012,0.028-0.067,0.172-0.074,0.198
		c-0.007,0.028-0.087,0.233-0.097,0.265c-0.009,0.029-0.087,0.242-0.103,0.287c-0.017,0.039-0.096,0.237-0.12,0.291
		c-0.025,0.053-0.126,0.256-0.17,0.315c-0.043,0.058-0.156,0.376-0.156,0.376l-0.021,0.072c0,0-0.054,0.064-0.075,0.084
		c-0.017,0.02-0.082,0.138-0.1,0.158c-0.015,0.025-0.062,0.123-0.084,0.15s-0.039,0.064-0.039,0.064s-0.007,0.002-0.028,0.029
		c-0.021,0.029-0.034,0.041-0.041,0.064c-0.012,0.02-0.029,0.062-0.029,0.062s-0.024,0.045-0.052,0.107
		c-0.004,0.014-0.012,0.041-0.019,0.055c-0.004,0.014-0.022,0.053-0.029,0.065c-0.027,0.062-0.044,0.09-0.048,0.104
		c-0.016,0.047-0.041,0.067-0.041,0.067s-0.04-0.028-0.06-0.013c-0.019,0.017-0.035-0.006-0.035-0.006l-0.029-0.002
		c0,0-0.041,0.002-0.064,0c-0.021-0.006-0.076,0.002-0.095,0.006c-0.02,0.008-0.057,0.043-0.057,0.043s-0.085,0.033-0.15,0.021
		c-0.067-0.012-0.105-0.023-0.142-0.027c-0.038,0-0.12,0.022-0.12,0.022s-0.035,0.03-0.05,0.042
		c-0.019,0.02-0.045,0.055-0.066,0.053c-0.02,0-0.133-0.013-0.16-0.006c-0.029,0.008-0.09,0.033-0.113,0.033
		c-0.022,0-0.248,0.031-0.267,0.055c-0.02,0.024-0.06,0.088-0.076,0.106c-0.009,0.021-0.009,0.036-0.014,0.041
		c-0.058,0.013-1.407,0.123-1.427,0.123c-0.018,0-0.04,0.041-0.04,0.041v0.085c0,0.021,0.01,1.344,0.01,1.344l-2.417,0.039v7.039
		h25.512v-7.393c-1.601-0.019-2.369-0.036-2.371-0.041C53.672,69.893,53.641,69.872,53.641,69.872 M40.534,66.643
		c0,0.063,0.02,0.123,0.02,0.123s-0.006,0.039-0.016,0.072c-0.017,0.035-0.035,0.121-0.041,0.152c-0.008,0.035,0,0.056,0.008,0.09
		c0.005,0.034-0.015,0.111-0.042,0.119c-0.025,0.006-0.157,0.06-0.19,0.074c-0.033,0.016-0.109,0.095-0.152,0.15
		c-0.038,0.051-0.091,0.16-0.103,0.186c-0.015,0.027-0.059,0.086-0.079,0.138c-0.022,0.045-0.094,0.151-0.116,0.192
		c-0.028,0.037-0.081,0.146-0.098,0.188c-0.02,0.039-0.151,0.269-0.172,0.312c-0.018,0.047-0.137,0.19-0.181,0.25
		c-0.047,0.061-0.319,0.414-0.319,0.414l-1.281-0.447c-0.002-0.008,0.015-0.023,0.075-0.079c0.061-0.054,0.151-0.166,0.192-0.22
		c0.039-0.057,0.024-0.127,0.024-0.127c0.065-0.047,0.178-0.195,0.191-0.225c0.01-0.025,0.025-0.068,0.032-0.094
		c0.006-0.026,0.078-0.173,0.078-0.173s0.096-0.148,0.123-0.2c0.03-0.055,0.185-0.264,0.21-0.323c0.026-0.06,0.183-0.286,0.229-0.36
		c0.046-0.075,0.316-0.491,0.333-0.532c0.02-0.037,0.105-0.267,0.132-0.315c0.026-0.046,0.09-0.214,0.169-0.326
		c0.077-0.113,0.162-0.351,0.174-0.408c0.012-0.061,0.06-0.147,0.083-0.213c0.024-0.068,0.163-0.457,0.163-0.502
		c-0.001-0.047,0.026-0.055,0.053-0.086c0.026-0.035,0.114-0.213,0.14-0.283c0.027-0.072,0.059-0.08,0.059-0.08
		s0.008,0.041,0.008,0.074c0,0.032,0.001,0.152-0.005,0.211c-0.004,0.061-0.003,0.188,0.005,0.239
		c0.008,0.056,0.042,0.241,0.062,0.39c0.021,0.158,0.139,0.498,0.159,0.556c0.021,0.062,0.008,0.177,0.008,0.221
		c0,0.037-0.012,0.203,0.004,0.271c0.013,0.067,0.054,0.167,0.069,0.204c0.012,0.043,0.012,0.076,0.012,0.076
		s0.003,0.045-0.011,0.084C40.532,66.48,40.534,66.583,40.534,66.643 M50.143,69.456c-0.06,0.021-0.053,0.06-0.053,0.06
		s-0.104,0.01-0.159,0.01c-0.053,0-0.111,0.021-0.111,0.021h-0.114c-0.039,0-0.095,0.037-0.095,0.037l-0.143,0.001L49.32,69.58
		c0,0-0.112-0.079-0.154-0.107c-0.041-0.024-0.159-0.091-0.215-0.125c-0.054-0.031-0.178-0.097-0.231-0.121
		c-0.054-0.027-0.15-0.055-0.196-0.067c-0.043-0.011-0.14-0.05-0.179-0.035c-0.038,0.011-0.125-0.013-0.171-0.013
		c-0.046,0-0.258,0.048-0.301,0.048c-0.039,0.002-0.154-0.011-0.224-0.035c-0.073-0.026-0.296-0.092-0.355-0.099
		c-0.058-0.004-0.099,0.022-0.099,0.022s-0.042-0.134-0.042-0.215c0-0.078-0.032-0.179-0.057-0.233
		c-0.02-0.05-0.079-0.117-0.094-0.17c-0.012-0.054-0.078-0.168-0.095-0.232c-0.014-0.065-0.083-0.172-0.094-0.24
		c-0.016-0.066-0.128-0.292-0.151-0.336c-0.022-0.047-0.149-0.238-0.194-0.271c-0.048-0.033-0.223-0.152-0.223-0.152l-0.009-0.059
		c0,0-0.004-0.127-0.006-0.174c0-0.048-0.021-0.079-0.034-0.128c-0.017-0.047-0.036-0.146-0.062-0.159
		c-0.028-0.011-0.021-0.033-0.021-0.033l0.037-0.084c0,0,0.049-0.076,0.06-0.108c0.018-0.034,0.022-0.099,0.032-0.144
		c0.015-0.053,0.027-0.09,0.027-0.131c-0.003-0.037,0.019-0.105,0.019-0.141c0-0.033,0.037-0.213,0.042-0.251
		c0.008-0.04,0.035-0.101,0.059-0.147c0.027-0.049,0.032-0.078,0.032-0.13c0-0.044-0.008-0.101,0.004-0.167
		c0.012-0.066,0.038-0.152,0.038-0.197c0-0.049,0.047-0.156,0.059-0.189s0.032-0.141,0.032-0.178c0-0.043,0.033-0.162,0.036-0.194
		c0.008-0.036,0.034-0.187,0.032-0.259c0-0.076,0.059-0.2,0.064-0.256c0.005-0.055,0.053-0.193,0.053-0.219s0.023-0.089,0.029-0.115
		c0.008-0.023,0.016-0.086,0.016-0.086l0.076,0.007c0,0,0.074,0.087,0.098,0.145c0.018,0.06,0.102,0.187,0.12,0.246
		c0.02,0.062,0.313,0.539,0.345,0.63c0.034,0.094,0.362,0.696,0.396,0.762c0.034,0.064,0.197,0.399,0.243,0.447
		c0.047,0.057,0.277,0.454,0.325,0.532c0.048,0.079,0.33,0.489,0.356,0.517c0.025,0.025,0.217,0.338,0.25,0.369
		c0.034,0.033,0.251,0.333,0.251,0.333s0.114,0.132,0.117,0.205c0.01,0.072,0.131,0.198,0.233,0.354
		c0.103,0.16,0.228,0.279,0.228,0.279s0.041,0.014,0.083,0.071c0.04,0.06,0.09,0.161,0.135,0.201
		c0.039,0.038,0.039,0.058,0.039,0.058s0,0.022-0.027,0.055c-0.023,0.031,0.045,0.091,0.045,0.091l0.04,0.096
		c0,0,0.028,0.113,0.052,0.153c0.028,0.035,0.064,0.193,0.064,0.193S50.202,69.436,50.143,69.456 M43.293,31.472
		c-5.285,0-10.123,2.247-12.758,5.893v29.533l1.508-0.138l0.016-1.106c-0.016-0.028-0.014-0.057,0.002-0.084l0.007-0.493l0.39-0.033
		c-0.056-0.067-0.105-0.142-0.11-0.209c-0.01-0.075,0.057-0.155,0.062-0.237c0.004-0.089,0.007-0.177,0.007-0.266
		c0.004-0.128-0.055-0.229-0.051-0.373c0-0.05-0.117-0.249-0.052-0.273c0.031-0.014,0.058-0.028,0.08-0.041
		c-0.009-0.037-0.014-0.067,0.003-0.076c0.137-0.051,0.146-0.108,0.253-0.19c0.025-0.015,0.039-0.03,0.049-0.042
		c-0.004-0.029-0.032-0.061-0.042-0.128c0.005-0.007,0.02-0.019,0.032-0.03v-0.003c0-0.012,0.014-0.017,0.031-0.03
		c0.008-0.026,0-0.066,0.033-0.096c0,0,0.006-0.005,0.028-0.016c0.017-0.012,0.058-0.028,0.11-0.02
		c0.031,0.002,0.061,0.008,0.096,0.03c0.034,0.026,0.026,0.07,0.031,0.095c0.003,0.006,0.007,0.012,0.01,0.019
		c0.002,0.001,0.005,0.005,0.009,0.005c0.016,0.015,0.039,0.027,0.045,0.04c-0.012,0.073-0.044,0.108-0.044,0.137
		c0.009,0.011,0.021,0.022,0.036,0.034c0.108,0.079,0.12,0.13,0.253,0.182c0.02,0.006,0.019,0.035,0.009,0.069
		c0.024,0.013,0.055,0.028,0.091,0.043c0.064,0.021-0.056,0.226-0.053,0.274c0.001,0.142-0.056,0.25-0.054,0.375
		c0.002,0.086,0.004,0.178,0.006,0.264c0.009,0.084,0.075,0.156,0.064,0.24c-0.005,0.049-0.032,0.102-0.069,0.154l1.356-0.109
		c0.021-0.313,0.032-0.325,0.032-0.342v-0.002l-0.004-0.349c-0.007-0.651-0.011-0.125-0.019-0.774
		c-0.004-0.484-0.008-1.612-0.017-2.094v-0.031c0-0.053-0.027-0.103-0.027-0.156c0-0.025,0.027-0.377,0.027-0.416
		c0-0.074-0.065-0.13-0.065-0.192c0-0.028,0.039-0.022,0.052-0.052c0.014-0.034,0.01-0.079,0.01-0.115
		c0-0.115-0.056-0.21-0.156-0.266c-0.066-0.035-0.054-0.092-0.054-0.159c0-0.063-0.044-0.108-0.044-0.166
		c0-0.06-0.153-0.038-0.192-0.071c-0.057-0.046-0.064-0.139-0.114-0.197c-0.043-0.059-0.071-0.205-0.091-0.278
		c-0.02-0.08-0.173-0.408-0.065-0.417c0.113-0.064,0.659-0.075,0.659-0.27c0-0.072-0.015-0.158,0.005-0.232
		c0.021-0.068,0.081-0.113,0.101-0.184c0.028-0.107,0.007-0.119,0.007-0.229c0-0.047,0.037-0.394-0.053-0.383
		c-0.127,0.018,0.013-0.15,0.013-0.188c0-0.112-0.083-0.151-0.1-0.25c-0.024-0.105-0.085-0.147,0.003-0.229
		c0.012-0.014,0.045-0.022,0.084-0.031v-0.104c0.004-0.043,0.037-0.08,0.079-0.086l0.059-0.008
		c-0.073-0.076-0.141-0.174-0.151-0.259c-0.01-0.076,0.057-0.155,0.062-0.235c0.003-0.072,0.004-0.141,0.005-0.211
		c-0.009-0.029-0.009-0.063-0.007-0.088c0-0.019,0.001-0.027,0.003-0.041c-0.003-0.029-0.01-0.059-0.014-0.086
		c-0.007-0.01-0.013-0.017-0.027-0.031c-0.036-0.041-0.025-0.062,0.004-0.08c-0.004-0.031-0.007-0.065-0.007-0.101
		c0-0.05-0.117-0.248-0.054-0.272c0.032-0.015,0.057-0.028,0.082-0.045c-0.009-0.035-0.015-0.065,0.003-0.071
		c0.137-0.054,0.147-0.11,0.254-0.192c0.022-0.015,0.037-0.031,0.048-0.042c-0.005-0.028-0.032-0.062-0.041-0.129
		c0.003-0.007,0.017-0.017,0.029-0.028v-0.005c0-0.013,0.016-0.019,0.031-0.026v-0.004c0.007-0.026,0-0.065,0.033-0.095
		c0,0,0.008-0.007,0.028-0.015c0.016-0.014,0.057-0.026,0.112-0.02c0.029,0.002,0.061,0.008,0.095,0.03
		c0.034,0.028,0.025,0.069,0.032,0.093c0.002,0.01,0.006,0.015,0.009,0.018c0,0.003,0.004,0.006,0.01,0.006
		c0.016,0.018,0.042,0.027,0.045,0.041c-0.013,0.072-0.045,0.107-0.045,0.135c0.009,0.014,0.021,0.023,0.038,0.037
		c0.107,0.078,0.116,0.13,0.252,0.18c0.017,0.006,0.016,0.033,0.008,0.068c0.022,0.016,0.054,0.031,0.093,0.044
		c0.062,0.022-0.057,0.226-0.056,0.276c0,0.035-0.001,0.068-0.005,0.101c0.032,0.017,0.045,0.038,0.005,0.081
		c-0.015,0.018-0.025,0.028-0.033,0.038c-0.002,0.019-0.005,0.037-0.009,0.058c0.001,0.014,0.004,0.031,0.005,0.062
		s0.001,0.071-0.013,0.106c0,0.064,0.003,0.129,0.007,0.194c0.005,0.084,0.07,0.158,0.061,0.24c-0.004,0.044-0.027,0.09-0.056,0.137
		l2.68-0.647l0.022-0.004c0.016,0,0.03-0.015,0.03-0.029l0.003-0.075v-0.613c0-0.198-0.052-0.235,0.009-0.428
		c0.036-0.117,0.213-0.093,0.213-0.208v-0.204c0-0.086,0.077-0.127,0.077-0.209V53.93c0-0.121,0.085-0.777-0.073-0.815
		c-0.053-0.109-0.221-0.367-0.064-0.421c0.089-0.03,0.104-0.096,0.163-0.159c0.089-0.037,0.121-0.121,0.121-0.211
		c0-0.291,0.003-0.582,0.003-0.872c0.006-1.325,0.011-0.806,0.018-2.13c0.002-0.42,0.002-0.84,0.004-1.26v-0.082
		c0-0.079-0.076-0.072-0.076-0.15c-0.038-0.069-0.029-0.095-0.102-0.157c-0.12-0.105-0.082-0.084-0.049-0.22
		c0.019-0.083-0.013-0.123-0.028-0.196c-0.01-0.056,0.065-0.116,0.065-0.185c0-0.079,0.006-0.157-0.023-0.233
		c-0.026-0.057,0-0.146-0.101-0.146c-0.027-0.014-0.059,0.005-0.086-0.011c-0.049-0.025-0.049-0.118-0.054-0.165
		c-0.011-0.091-0.016-0.096-0.068-0.166c-0.049-0.068,0.052-0.156,0.093-0.199c0.061-0.06,0.121-0.136,0.209-0.144
		c0.06-0.021,0.169,0.015,0.169-0.092c0.034-0.093-0.004-0.275-0.007-0.377c0-0.141,0.078-0.217,0.106-0.346
		c0.024-0.095,0.021-0.209,0.021-0.312c0-0.284,0.017-0.529-0.102-0.779c-0.038-0.076-0.2-0.348-0.036-0.401
		c0.045-0.028,0.125-0.037,0.174-0.052c0.067-0.021,0.019-0.223,0.015-0.291c-0.021-0.582,0.068-1.21,0.351-1.729
		c0.268-0.503,0.752-0.97,1.225-1.285c0.196-0.13,0.402-0.243,0.607-0.35c0.054-0.028,0.104-0.056,0.159-0.081
		c0.058-0.029,0.029-0.088,0.062-0.113c0.06-0.057,0.13-0.099,0.16-0.178c0.038-0.104,0.065-0.106,0.145-0.158
		c0.073-0.025,0.145-0.102,0.146-0.184c0.004-0.033-0.082-0.099-0.101-0.13c-0.048-0.101,0.059-0.085,0.104-0.135
		c0.024-0.024,0.017-0.065,0.017-0.098c0-0.083,0.021-0.116,0.044-0.188c0.014-0.054,0.006-0.121,0.006-0.174v-1.475
		c0-0.107-0.172-0.112-0.172-0.21c0-0.065,0.083-0.052,0.118-0.075c0.074-0.017,0.058-0.07,0.084-0.123
		c0.025-0.052,0.058-0.061,0.054-0.131c-0.006-0.07,0-0.141,0.01-0.208c0.056-0.333,0.265-0.607,0.563-0.764
		c0.109-0.059,0.342-0.113,0.342-0.112c-0.016-0.079,0.054-0.334,0.076-0.411c0.024-0.097,0.049-0.189,0.078-0.284
		c0.031-0.108,0.096-0.318,0.241-0.304c0.143-0.014,0.207,0.196,0.24,0.304c0.028,0.095,0.053,0.188,0.079,0.284
		c0.021,0.077,0.095,0.332,0.075,0.411c0,0,0.231,0.054,0.346,0.112c0.293,0.157,0.504,0.431,0.561,0.764
		c0.012,0.068,0.015,0.139,0.012,0.208c-0.009,0.07,0.023,0.079,0.053,0.131c0.027,0.053,0.007,0.106,0.08,0.123
		c0.037,0.022,0.12,0.01,0.12,0.075c0,0.098-0.173,0.103-0.173,0.21v1.475c0,0.053-0.01,0.12,0.008,0.174
		c0.024,0.072,0.042,0.105,0.042,0.188c0,0.033-0.004,0.074,0.019,0.098c0.044,0.05,0.153,0.035,0.104,0.135
		c-0.016,0.032-0.102,0.098-0.102,0.13c0,0.083,0.075,0.159,0.147,0.184c0.081,0.052,0.107,0.054,0.148,0.158
		c0.025,0.08,0.097,0.122,0.157,0.178c0.031,0.025,0.004,0.083,0.063,0.113c0.053,0.025,0.106,0.053,0.159,0.081
		c0.206,0.107,0.413,0.22,0.607,0.35c0.475,0.315,0.953,0.782,1.227,1.285c0.277,0.518,0.368,1.146,0.347,1.729
		c-0.003,0.068-0.051,0.27,0.016,0.291c0.051,0.016,0.127,0.024,0.174,0.052c0.165,0.054,0.002,0.326-0.036,0.401
		c-0.119,0.25-0.103,0.495-0.103,0.779c0,0.103-0.005,0.217,0.021,0.312c0.031,0.129,0.108,0.205,0.108,0.346
		c-0.003,0.102-0.041,0.284-0.007,0.377c0,0.106,0.111,0.071,0.167,0.092c0.09,0.008,0.151,0.084,0.21,0.144
		c0.042,0.043,0.144,0.131,0.094,0.199c-0.055,0.07-0.059,0.075-0.069,0.166c-0.005,0.047-0.005,0.139-0.049,0.165
		c-0.031,0.017-0.066-0.003-0.092,0.011c-0.097,0-0.072,0.089-0.097,0.146c-0.031,0.077-0.025,0.155-0.025,0.233
		c0,0.069,0.076,0.129,0.064,0.185c-0.014,0.073-0.046,0.113-0.027,0.196c0.033,0.136,0.071,0.115-0.052,0.22
		c-0.071,0.062-0.063,0.088-0.102,0.157c0,0.078-0.075,0.071-0.075,0.15v0.082c0,0.42,0.008,0.84,0.008,1.26l0.013,2.13
		c0.005,0.29,0.005,0.581,0.005,0.872c0,0.09,0.03,0.174,0.121,0.211c0.061,0.063,0.073,0.129,0.162,0.159
		c0.159,0.055-0.012,0.312-0.066,0.421c-0.158,0.038-0.072,0.694-0.072,0.815v0.114c0,0.083,0.079,0.124,0.079,0.209v0.065
		c0,0.119,0.174,0.103,0.214,0.221c0.063,0.191,0.004,0.355,0.004,0.557v0.666c0,0.006,0,0.014,0.003,0.018
		c0.001,0.011,0.006,0.016,0.015,0.019l2.737,0.665c-0.03-0.047-0.053-0.095-0.059-0.135c-0.007-0.082,0.06-0.156,0.063-0.24
		c0.005-0.051,0.005-0.105,0.008-0.158c-0.043-0.037-0.046-0.098-0.042-0.139c0.007-0.086,0.027-0.094-0.037-0.158
		c-0.052-0.052-0.016-0.076,0.035-0.092c-0.003-0.029-0.008-0.059-0.008-0.091c0.004-0.05-0.115-0.253-0.052-0.276
		c0.038-0.013,0.069-0.027,0.092-0.044c-0.009-0.034-0.009-0.062,0.004-0.069c0.138-0.047,0.146-0.101,0.256-0.179
		c0.015-0.014,0.029-0.024,0.037-0.036c0-0.029-0.032-0.062-0.043-0.136c0.004-0.013,0.029-0.024,0.043-0.041
		c0.005,0,0.008-0.003,0.01-0.006c0.003-0.003,0.008-0.008,0.01-0.019c0.004-0.022-0.002-0.063,0.029-0.092
		c0.036-0.021,0.067-0.029,0.095-0.029c0.057-0.008,0.096,0.006,0.115,0.019c0.019,0.008,0.026,0.015,0.026,0.015
		c0.032,0.029,0.024,0.068,0.032,0.096v0.003c0.016,0.008,0.029,0.014,0.029,0.026v0.004c0.017,0.013,0.029,0.021,0.032,0.029
		c-0.01,0.067-0.037,0.102-0.042,0.129c0.01,0.012,0.027,0.027,0.05,0.043c0.106,0.081,0.117,0.139,0.254,0.191
		c0.016,0.006,0.013,0.037,0.001,0.072c0.025,0.016,0.051,0.029,0.083,0.043c0.064,0.025-0.054,0.224-0.054,0.273
		c0.002,0.045-0.003,0.086-0.011,0.124c0.005,0.013,0,0.025-0.008,0.04c-0.017,0.07-0.033,0.139-0.031,0.208
		c0,0.089,0.003,0.179,0.007,0.267c0.004,0.078,0.072,0.16,0.062,0.234c-0.009,0.082-0.071,0.176-0.144,0.25l0.119,0.018
		c0.042,0.005,0.073,0.043,0.079,0.086v0.137l0.004,0.001c0.089,0.084,0.026,0.124,0.002,0.231c-0.02,0.098-0.104,0.14-0.104,0.25
		c0,0.039,0.141,0.203,0.018,0.189c-0.092-0.011-0.056,0.333-0.056,0.379c0,0.107-0.025,0.123,0.006,0.229
		c0.021,0.07,0.083,0.113,0.101,0.188c0.021,0.074,0.007,0.156,0.007,0.229c0,0.192,0.547,0.207,0.656,0.269
		c0.111,0.011-0.044,0.34-0.063,0.422c-0.019,0.07-0.045,0.222-0.093,0.276c-0.048,0.058-0.056,0.15-0.112,0.199
		c-0.037,0.029-0.193,0.011-0.193,0.068c0,0.057-0.044,0.103-0.044,0.166c0,0.07,0.012,0.123-0.052,0.156
		c-0.102,0.059-0.153,0.154-0.153,0.27c0,0.037-0.004,0.08,0.008,0.113c0.01,0.028,0.053,0.023,0.053,0.053
		c0,0.06-0.069,0.117-0.069,0.193c0,0.038,0.029,0.387,0.029,0.417c0,0.052-0.029,0.101-0.029,0.154v0.028
		c-0.003,0.482-0.008,1.608-0.014,2.092c-0.008,0.652-0.013,0.125-0.021,0.774l-0.002,0.341v0.006c0,0.016,0.015,0.027,0.031,0.344
		l1.379,0.105c-0.012-0.022-0.02-0.047-0.021-0.068c-0.007-0.081,0.058-0.154,0.065-0.238c0.004-0.09,0.005-0.175,0.007-0.264
		c0.001-0.127-0.055-0.233-0.054-0.377c0.002-0.047-0.116-0.25-0.053-0.274c0.039-0.012,0.068-0.028,0.091-0.044
		c-0.007-0.033-0.01-0.061,0.008-0.066c0.136-0.051,0.146-0.104,0.252-0.18c0.02-0.015,0.03-0.023,0.038-0.038
		c0-0.028-0.032-0.063-0.043-0.134c0.003-0.014,0.029-0.023,0.043-0.042c0.006,0,0.008-0.004,0.009-0.007
		c0.004-0.002,0.008-0.01,0.01-0.016c0.004-0.024-0.002-0.067,0.032-0.096c0.033-0.021,0.065-0.027,0.093-0.029
		c0.055-0.01,0.094,0.008,0.114,0.02c0.019,0.007,0.024,0.015,0.024,0.015c0.036,0.031,0.028,0.069,0.036,0.097
		c0.016,0.01,0.031,0.017,0.031,0.029v0.004c0.01,0.012,0.026,0.021,0.028,0.028c-0.009,0.067-0.037,0.101-0.04,0.127
		c0.011,0.013,0.025,0.026,0.048,0.043c0.108,0.083,0.117,0.14,0.253,0.193c0.016,0.005,0.011,0.038,0.003,0.073
		c0.025,0.014,0.05,0.027,0.082,0.041c0.064,0.026-0.056,0.226-0.056,0.273c0.006,0.145-0.054,0.245-0.051,0.372
		c0,0.09,0.005,0.176,0.008,0.267c0.007,0.082,0.074,0.16,0.062,0.236c-0.005,0.04-0.026,0.086-0.052,0.131l0.325,0.024l0.008,0.571
		c0.021,0.033,0.029,0.067,0.003,0.101l0.014,1.019l1.439,0.129V37.36C53.411,33.716,48.573,31.472,43.293,31.472 M42.998,38.64
		c0,0,0.003,0.002,0.007,0.002h0.569c0.009,0,0.018-0.013,0.018-0.023v-1.702c0-0.144-0.108-0.308-0.25-0.338
		c-0.024-0.008-0.044-0.012-0.07-0.012c-0.164,0-0.302,0.185-0.302,0.346v1.702c0,0.013,0.007,0.025,0.018,0.025H42.998z
		 M42.534,36.752c-0.019-0.005-0.04-0.007-0.059-0.002c-0.12,0.022-0.226,0.118-0.248,0.285v1.729c0,0.015,0.01,0.022,0.022,0.019
		c0.004,0.003,0.01,0.009,0.015,0.003l0.46-0.091c0.013,0,0.019-0.012,0.019-0.026v-1.632C42.744,36.9,42.64,36.766,42.534,36.752
		 M42.279,46.467v5.652c0,0.035,0.026,0.064,0.058,0.073c0.006,0,0.017,0.003,0.026,0.003h1.864c0.039,0,0.069-0.033,0.069-0.073
		v-5.648c0-0.478-0.327-0.953-0.798-1.061c-0.069-0.016-0.142-0.026-0.218-0.026C42.701,45.387,42.279,45.926,42.279,46.467
		 M43.853,38.694c0.002,0,0.002,0.001,0.002,0.001l0.452,0.091c0.012,0.006,0.02-0.004,0.02-0.018v-1.731
		c-0.02-0.155-0.115-0.265-0.233-0.282c-0.004-0.002-0.005,0-0.008-0.002c-0.003,0-0.005-0.002-0.009-0.002
		c-0.133-0.023-0.257,0.128-0.257,0.285v1.632c0,0.013,0.008,0.023,0.02,0.023L43.853,38.694z M45.467,52.25l0.008,0.003
		c0.004,0.001,0.007,0.001,0.01,0.002l1.212,0.146c0.035,0.006,0.066-0.028,0.066-0.069v-5.473c0-0.467-0.251-0.854-0.586-0.935
		c-0.048-0.016-0.098-0.022-0.148-0.022c-0.399,0-0.628,0.426-0.628,0.953v5.315C45.401,52.211,45.433,52.247,45.467,52.25"/>
	<path fill="#FECB00" d="M40.556,66.352c0,0,0-0.031-0.013-0.072c-0.014-0.039-0.055-0.139-0.068-0.206
		c-0.015-0.068-0.003-0.234-0.003-0.271c0-0.043,0.013-0.159-0.007-0.221c-0.022-0.06-0.138-0.397-0.16-0.552
		c-0.019-0.152-0.055-0.336-0.065-0.394c-0.006-0.052-0.006-0.179-0.003-0.239c0.007-0.059,0.007-0.18,0.005-0.211
		c0-0.033-0.007-0.074-0.007-0.074s-0.034,0.008-0.059,0.082c-0.027,0.07-0.115,0.248-0.142,0.281
		c-0.026,0.031-0.054,0.041-0.052,0.086c0,0.045-0.139,0.434-0.163,0.5c-0.023,0.067-0.071,0.153-0.083,0.215
		c-0.012,0.058-0.097,0.295-0.174,0.408c-0.08,0.112-0.144,0.28-0.169,0.326c-0.027,0.049-0.112,0.277-0.132,0.315
		c-0.018,0.041-0.286,0.456-0.333,0.532c-0.046,0.072-0.203,0.3-0.228,0.359c-0.026,0.059-0.184,0.27-0.213,0.322
		c-0.024,0.052-0.121,0.201-0.121,0.201s-0.071,0.146-0.078,0.172c-0.007,0.025-0.022,0.068-0.032,0.093
		c-0.014,0.028-0.126,0.177-0.191,0.224c0,0,0.014,0.072-0.024,0.129c-0.041,0.053-0.132,0.166-0.192,0.22
		c-0.061,0.055-0.076,0.071-0.075,0.077l1.282,0.449c0,0,0.272-0.354,0.321-0.416c0.042-0.06,0.164-0.201,0.18-0.25
		c0.021-0.045,0.149-0.272,0.171-0.312c0.019-0.043,0.07-0.15,0.098-0.189c0.024-0.039,0.096-0.146,0.117-0.191
		c0.02-0.051,0.064-0.109,0.08-0.137c0.011-0.025,0.065-0.135,0.103-0.186c0.042-0.058,0.119-0.135,0.152-0.15
		c0.032-0.016,0.164-0.069,0.19-0.076c0.027-0.006,0.046-0.084,0.042-0.117c-0.007-0.035-0.017-0.057-0.007-0.088
		c0.004-0.034,0.023-0.12,0.038-0.154c0.011-0.034,0.018-0.072,0.018-0.072s-0.02-0.06-0.02-0.123c0-0.061-0.002-0.162,0.009-0.205
		C40.559,66.398,40.556,66.352,40.556,66.352 M50.135,69.045l-0.041-0.094c0,0-0.069-0.062-0.045-0.094
		c0.027-0.029,0.027-0.053,0.027-0.053s0-0.021-0.04-0.059c-0.044-0.039-0.095-0.141-0.135-0.201c-0.04-0.059-0.082-0.07-0.082-0.07
		s-0.126-0.121-0.228-0.277c-0.103-0.159-0.223-0.284-0.233-0.356c-0.003-0.073-0.117-0.205-0.117-0.205s-0.217-0.3-0.251-0.333
		c-0.033-0.033-0.225-0.344-0.25-0.369c-0.026-0.029-0.308-0.438-0.356-0.517c-0.049-0.08-0.279-0.476-0.326-0.533
		c-0.045-0.047-0.209-0.383-0.243-0.448s-0.36-0.668-0.396-0.762c-0.032-0.092-0.325-0.57-0.345-0.629
		c-0.02-0.059-0.102-0.188-0.121-0.247c-0.022-0.058-0.097-0.144-0.097-0.144l-0.077-0.008c0,0-0.007,0.062-0.015,0.086
		c-0.004,0.028-0.031,0.09-0.031,0.117c0,0.023-0.046,0.164-0.051,0.217c-0.006,0.057-0.065,0.181-0.065,0.257
		c0.002,0.071-0.023,0.223-0.031,0.259c-0.003,0.034-0.036,0.15-0.036,0.193c0,0.039-0.021,0.146-0.031,0.179
		c-0.013,0.032-0.06,0.141-0.06,0.188c0,0.045-0.025,0.131-0.038,0.198c-0.012,0.065-0.004,0.122-0.004,0.166
		c0,0.05-0.005,0.082-0.032,0.129c-0.023,0.048-0.051,0.109-0.058,0.148c-0.006,0.039-0.042,0.218-0.042,0.252
		s-0.02,0.103-0.02,0.14c0,0.042-0.011,0.08-0.025,0.131c-0.01,0.045-0.014,0.11-0.032,0.146c-0.012,0.03-0.06,0.104-0.06,0.104
		l-0.038,0.086c0,0-0.006,0.022,0.022,0.034c0.026,0.015,0.045,0.113,0.062,0.159c0.01,0.048,0.035,0.08,0.035,0.127
		s0.004,0.174,0.004,0.174l0.01,0.057c0,0,0.175,0.119,0.224,0.154c0.043,0.031,0.171,0.223,0.193,0.271
		c0.023,0.044,0.135,0.269,0.149,0.337c0.012,0.066,0.082,0.173,0.095,0.238c0.017,0.065,0.082,0.181,0.095,0.231
		c0.015,0.054,0.076,0.122,0.094,0.171c0.026,0.055,0.058,0.155,0.058,0.235s0.041,0.213,0.041,0.213s0.042-0.028,0.101-0.022
		c0.058,0.008,0.28,0.073,0.354,0.099c0.07,0.026,0.185,0.038,0.224,0.036c0.041,0,0.254-0.047,0.3-0.047s0.133,0.023,0.171,0.011
		c0.04-0.013,0.136,0.024,0.18,0.036c0.045,0.015,0.141,0.041,0.195,0.066c0.053,0.025,0.179,0.092,0.231,0.123
		c0.056,0.032,0.173,0.1,0.213,0.125c0.044,0.027,0.156,0.105,0.156,0.105l0.147,0.005l0.143-0.001c0,0,0.056-0.037,0.095-0.037
		h0.114c0,0,0.058-0.02,0.112-0.02c0.054,0,0.158-0.012,0.158-0.012s-0.007-0.039,0.053-0.058c0.06-0.022,0.107-0.065,0.107-0.065
		s-0.036-0.158-0.064-0.195C50.162,69.158,50.135,69.045,50.135,69.045 M54.607,66.761l-0.013-1.018
		c0.023-0.034,0.018-0.07-0.003-0.101l-0.008-0.572l-0.326-0.025c0.028-0.043,0.048-0.089,0.053-0.13
		c0.011-0.076-0.057-0.155-0.062-0.237c-0.003-0.089-0.009-0.175-0.009-0.266c-0.003-0.126,0.057-0.229,0.05-0.371
		c0-0.049,0.121-0.25,0.057-0.275c-0.032-0.014-0.058-0.026-0.082-0.041c0.008-0.035,0.013-0.068-0.003-0.072
		c-0.136-0.055-0.147-0.111-0.253-0.194c-0.024-0.017-0.042-0.03-0.049-0.042c0.003-0.027,0.032-0.061,0.04-0.126
		c-0.002-0.008-0.019-0.019-0.032-0.029v-0.005c0-0.013-0.011-0.02-0.027-0.029c-0.009-0.026,0-0.064-0.036-0.096
		c0,0-0.006-0.007-0.026-0.015c-0.017-0.013-0.058-0.029-0.113-0.019c-0.028,0.002-0.061,0.008-0.094,0.028
		c-0.034,0.03-0.029,0.069-0.032,0.095c-0.002,0.006-0.005,0.014-0.009,0.016c-0.001,0.005-0.004,0.007-0.01,0.007
		c-0.016,0.018-0.041,0.028-0.043,0.039c0.011,0.073,0.043,0.108,0.043,0.137c-0.008,0.015-0.019,0.022-0.038,0.035
		c-0.106,0.079-0.117,0.132-0.253,0.182c-0.017,0.007-0.015,0.034-0.006,0.066c-0.025,0.015-0.054,0.032-0.094,0.044
		c-0.062,0.023,0.058,0.225,0.054,0.275c-0.001,0.143,0.055,0.25,0.054,0.375c-0.002,0.09-0.003,0.176-0.01,0.266
		c-0.004,0.084-0.069,0.156-0.063,0.238c0.002,0.021,0.01,0.047,0.022,0.068l-1.38-0.107c-0.018-0.314-0.031-0.326-0.031-0.342
		v-0.006l0.002-0.341c0.008-0.649,0.013-0.123,0.021-0.776c0.006-0.481,0.011-1.607,0.014-2.09v-0.027
		c0-0.055,0.029-0.104,0.029-0.155c0-0.03-0.029-0.378-0.029-0.417c0-0.074,0.07-0.134,0.07-0.193c0-0.029-0.043-0.024-0.053-0.054
		c-0.011-0.032-0.008-0.076-0.008-0.112c0-0.115,0.052-0.211,0.154-0.27c0.064-0.033,0.051-0.086,0.051-0.155
		c0-0.065,0.045-0.11,0.045-0.167c0-0.058,0.157-0.04,0.193-0.07c0.056-0.047,0.064-0.139,0.112-0.199
		c0.047-0.053,0.072-0.204,0.094-0.275c0.018-0.082,0.171-0.412,0.062-0.421c-0.109-0.062-0.656-0.075-0.656-0.267
		c0-0.074,0.014-0.158-0.007-0.23c-0.018-0.074-0.082-0.117-0.101-0.188c-0.031-0.104-0.006-0.121-0.006-0.229
		c0-0.046-0.036-0.391,0.056-0.38c0.123,0.013-0.018-0.151-0.018-0.188c0-0.111,0.084-0.151,0.104-0.25
		c0.023-0.107,0.087-0.152-0.002-0.231l-0.004-0.001v-0.139c-0.006-0.043-0.038-0.08-0.078-0.086l-0.119-0.017
		c0.073-0.077,0.135-0.167,0.144-0.25c0.01-0.076-0.057-0.155-0.061-0.235c-0.005-0.09-0.008-0.178-0.008-0.266
		c-0.002-0.073,0.014-0.141,0.031-0.21c0.008-0.015,0.014-0.026,0.005-0.039c0.012-0.038,0.016-0.08,0.013-0.124
		c0-0.049,0.119-0.249,0.055-0.273c-0.032-0.015-0.056-0.028-0.083-0.043c0.012-0.035,0.015-0.065-0.001-0.074
		c-0.138-0.051-0.147-0.107-0.253-0.19c-0.026-0.016-0.041-0.03-0.051-0.043c0.006-0.026,0.032-0.062,0.042-0.128
		c-0.003-0.007-0.018-0.018-0.032-0.029v-0.004c0-0.013-0.014-0.019-0.028-0.027v-0.002c-0.008-0.027,0-0.066-0.032-0.097
		c0,0-0.009-0.005-0.028-0.014c-0.018-0.013-0.059-0.026-0.114-0.021c-0.026,0.002-0.059,0.01-0.094,0.031
		c-0.034,0.025-0.027,0.068-0.032,0.094c-0.001,0.008-0.005,0.015-0.008,0.017c-0.002,0.003-0.006,0.006-0.011,0.006
		c-0.016,0.017-0.04,0.028-0.043,0.042c0.011,0.072,0.043,0.105,0.043,0.135c-0.008,0.014-0.021,0.021-0.037,0.037
		c-0.109,0.078-0.118,0.13-0.256,0.18c-0.016,0.008-0.014,0.035-0.003,0.067c-0.025,0.017-0.056,0.03-0.093,0.044
		c-0.064,0.021,0.058,0.227,0.052,0.275c0,0.031,0.005,0.062,0.009,0.089c-0.053,0.018-0.087,0.043-0.036,0.095
		c0.063,0.064,0.042,0.072,0.036,0.157c-0.002,0.042,0,0.104,0.041,0.139c-0.001,0.054-0.002,0.107-0.006,0.16
		c-0.002,0.083-0.069,0.157-0.063,0.24c0.006,0.041,0.029,0.088,0.06,0.134l-2.737-0.664c-0.009-0.003-0.014-0.009-0.016-0.018
		c-0.003-0.004-0.003-0.012-0.003-0.019v-0.666c0-0.2,0.058-0.364-0.004-0.556c-0.041-0.119-0.214-0.104-0.214-0.221v-0.065
		c0-0.086-0.078-0.126-0.078-0.21v-0.114c0-0.122-0.086-0.776,0.073-0.815c0.054-0.108,0.224-0.367,0.066-0.422
		c-0.09-0.028-0.102-0.095-0.165-0.158c-0.088-0.035-0.119-0.12-0.119-0.211c0-0.289,0-0.581-0.005-0.87l-0.013-2.13
		c0-0.42-0.007-0.841-0.007-1.261v-0.083c0-0.077,0.075-0.07,0.075-0.147c0.038-0.069,0.032-0.096,0.102-0.157
		c0.122-0.105,0.084-0.084,0.051-0.22c-0.019-0.083,0.013-0.124,0.026-0.195c0.012-0.057-0.064-0.119-0.064-0.186
		c0-0.08-0.006-0.157,0.026-0.234c0.025-0.058-0.001-0.146,0.096-0.146c0.025-0.014,0.061,0.006,0.091-0.011
		c0.044-0.025,0.044-0.117,0.049-0.164c0.011-0.091,0.014-0.096,0.07-0.166c0.05-0.068-0.053-0.157-0.094-0.199
		c-0.061-0.06-0.12-0.136-0.21-0.144c-0.056-0.02-0.167,0.016-0.167-0.092c-0.034-0.093,0.005-0.274,0.007-0.377
		c0-0.143-0.078-0.218-0.11-0.346c-0.024-0.096-0.02-0.208-0.02-0.311c0-0.287-0.016-0.531,0.103-0.78
		c0.039-0.076,0.201-0.348,0.036-0.4c-0.047-0.03-0.123-0.038-0.174-0.054c-0.067-0.021-0.019-0.223-0.016-0.291
		c0.021-0.582-0.069-1.21-0.347-1.731c-0.275-0.501-0.753-0.967-1.227-1.283c-0.194-0.13-0.402-0.243-0.607-0.35
		c-0.053-0.027-0.105-0.056-0.159-0.081c-0.059-0.03-0.033-0.088-0.063-0.113c-0.061-0.056-0.132-0.098-0.157-0.178
		c-0.041-0.103-0.067-0.106-0.148-0.158c-0.073-0.025-0.147-0.101-0.147-0.185c0-0.03,0.085-0.097,0.103-0.127
		c0.048-0.103-0.061-0.087-0.104-0.137c-0.023-0.026-0.018-0.067-0.018-0.098c0-0.083-0.02-0.117-0.045-0.189
		c-0.017-0.053-0.006-0.121-0.006-0.173v-1.477c0-0.108,0.173-0.112,0.173-0.21c0-0.064-0.084-0.051-0.121-0.074
		c-0.073-0.017-0.052-0.068-0.081-0.124c-0.029-0.051-0.061-0.061-0.052-0.13c0.003-0.071,0-0.141-0.012-0.208
		c-0.056-0.333-0.268-0.608-0.56-0.765c-0.115-0.058-0.346-0.111-0.346-0.111c0.02-0.08-0.056-0.335-0.075-0.411
		c-0.026-0.097-0.051-0.19-0.079-0.286c-0.033-0.107-0.097-0.317-0.24-0.302c-0.145-0.015-0.21,0.195-0.241,0.302
		c-0.029,0.095-0.053,0.188-0.078,0.286c-0.022,0.076-0.092,0.331-0.076,0.411c0-0.002-0.233,0.053-0.339,0.111
		c-0.302,0.157-0.51,0.433-0.566,0.765c-0.011,0.067-0.016,0.137-0.011,0.208c0.005,0.07-0.026,0.08-0.052,0.13
		c-0.026,0.055-0.01,0.106-0.084,0.124c-0.035,0.023-0.118,0.01-0.118,0.074c0,0.099,0.172,0.103,0.172,0.21v1.477
		c0,0.052,0.008,0.12-0.006,0.173c-0.022,0.072-0.044,0.105-0.044,0.189c0,0.03,0.007,0.071-0.017,0.098
		c-0.044,0.049-0.153,0.034-0.105,0.137c0.019,0.03,0.105,0.098,0.101,0.127c-0.001,0.084-0.073,0.16-0.146,0.185
		c-0.08,0.052-0.107,0.055-0.145,0.158c-0.029,0.081-0.101,0.122-0.162,0.178c-0.032,0.025-0.002,0.083-0.061,0.113
		c-0.054,0.025-0.105,0.054-0.159,0.081c-0.205,0.107-0.411,0.22-0.607,0.35c-0.472,0.316-0.956,0.782-1.226,1.283
		c-0.281,0.521-0.369,1.149-0.349,1.731c0.004,0.068,0.053,0.27-0.014,0.291c-0.05,0.016-0.129,0.023-0.174,0.054
		c-0.163,0.053-0.003,0.324,0.036,0.4c0.119,0.249,0.102,0.493,0.102,0.78c0,0.103,0.003,0.215-0.022,0.311
		c-0.027,0.127-0.106,0.203-0.106,0.346c0.003,0.103,0.042,0.284,0.006,0.377c0,0.108-0.109,0.072-0.168,0.092
		c-0.088,0.008-0.149,0.083-0.209,0.144c-0.041,0.042-0.146,0.131-0.093,0.199c0.052,0.07,0.058,0.075,0.068,0.166
		c0.005,0.047,0.005,0.139,0.054,0.164c0.028,0.017,0.06-0.003,0.086,0.011c0.101,0,0.074,0.088,0.101,0.146
		c0.029,0.077,0.023,0.154,0.023,0.234c0,0.067-0.075,0.128-0.065,0.186c0.015,0.071,0.047,0.111,0.027,0.195
		c-0.032,0.136-0.07,0.115,0.05,0.22c0.074,0.061,0.064,0.088,0.102,0.157c0,0.078,0.076,0.071,0.076,0.147v0.083
		c-0.002,0.42-0.002,0.841-0.004,1.261c-0.007,1.325-0.012,0.805-0.019,2.13c0,0.29-0.001,0.581-0.001,0.87
		c-0.004,0.091-0.034,0.176-0.123,0.211c-0.059,0.063-0.074,0.13-0.162,0.158c-0.16,0.056,0.01,0.313,0.063,0.422
		c0.159,0.039,0.073,0.693,0.073,0.815v0.114c0,0.084-0.077,0.124-0.077,0.21v0.204c0,0.115-0.176,0.092-0.213,0.208
		c-0.061,0.192-0.009,0.229-0.009,0.429v0.613l-0.003,0.076c0,0.014-0.015,0.027-0.03,0.027l-0.022,0.006l-2.682,0.646
		c0.03-0.047,0.055-0.094,0.058-0.137c0.009-0.083-0.058-0.156-0.062-0.24c-0.004-0.064-0.006-0.13-0.007-0.196
		c0.015-0.032,0.015-0.075,0.012-0.105c-0.001-0.029-0.003-0.048-0.004-0.062c0.003-0.019,0.007-0.038,0.009-0.057
		c0.007-0.011,0.019-0.021,0.033-0.038c0.04-0.043,0.026-0.064-0.006-0.08c0.005-0.032,0.006-0.066,0.006-0.102
		c-0.001-0.049,0.117-0.252,0.055-0.274c-0.038-0.015-0.07-0.028-0.093-0.044c0.009-0.033,0.01-0.061-0.007-0.068
		c-0.136-0.049-0.146-0.101-0.252-0.179c-0.017-0.017-0.028-0.022-0.038-0.037c0-0.028,0.032-0.062,0.045-0.135
		c-0.003-0.013-0.03-0.024-0.045-0.042c-0.005,0-0.009-0.003-0.009-0.006c-0.004-0.002-0.007-0.008-0.009-0.018
		c-0.006-0.023,0.002-0.066-0.032-0.093c-0.034-0.022-0.066-0.028-0.095-0.03c-0.055-0.007-0.095,0.006-0.111,0.02
		c-0.02,0.009-0.028,0.014-0.028,0.014c-0.033,0.03-0.026,0.069-0.033,0.098v0.002c-0.016,0.008-0.031,0.014-0.031,0.026v0.005
		c-0.012,0.01-0.026,0.021-0.029,0.028c0.008,0.067,0.036,0.101,0.041,0.128c-0.012,0.012-0.025,0.028-0.049,0.043
		c-0.106,0.083-0.116,0.139-0.252,0.191c-0.019,0.007-0.013,0.037-0.004,0.074c-0.025,0.015-0.049,0.028-0.082,0.041
		c-0.064,0.025,0.053,0.226,0.053,0.274c0,0.035,0.003,0.069,0.007,0.101c-0.028,0.017-0.04,0.039-0.004,0.08
		c0.013,0.015,0.02,0.021,0.028,0.031c0.004,0.027,0.01,0.057,0.014,0.086c-0.002,0.012-0.004,0.021-0.004,0.04
		c-0.001,0.025-0.001,0.058,0.008,0.087c-0.001,0.073-0.002,0.141-0.007,0.213c-0.004,0.079-0.072,0.159-0.062,0.235
		c0.01,0.086,0.078,0.183,0.152,0.259L34.755,56.6c-0.042,0.006-0.074,0.043-0.078,0.086v0.104c-0.04,0.009-0.073,0.018-0.084,0.031
		c-0.088,0.082-0.027,0.123-0.004,0.229c0.018,0.099,0.1,0.138,0.1,0.25c0,0.036-0.139,0.205-0.013,0.188
		c0.091-0.012,0.054,0.336,0.054,0.382c0,0.11,0.021,0.123-0.008,0.229c-0.021,0.069-0.081,0.115-0.101,0.184
		c-0.02,0.074-0.005,0.158-0.005,0.232c0,0.19-0.546,0.203-0.658,0.27c-0.108,0.009,0.045,0.338,0.064,0.417
		c0.019,0.073,0.047,0.221,0.091,0.278c0.049,0.058,0.057,0.15,0.112,0.196c0.041,0.034,0.194,0.013,0.194,0.072
		c0,0.058,0.044,0.103,0.044,0.165c0,0.068-0.012,0.125,0.054,0.159c0.1,0.056,0.156,0.149,0.156,0.266
		c0,0.036,0.002,0.084-0.01,0.115c-0.013,0.028-0.053,0.022-0.053,0.052c0,0.062,0.065,0.118,0.067,0.193
		c0,0.039-0.027,0.39-0.027,0.416c0,0.053,0.027,0.103,0.028,0.156v0.029c0.008,0.482,0.011,1.61,0.016,2.094
		c0.008,0.649,0.014,0.125,0.02,0.775l0.001,0.348v0.002c0,0.017-0.009,0.028-0.029,0.342l-1.356,0.109
		c0.037-0.053,0.064-0.105,0.069-0.154c0.011-0.084-0.056-0.155-0.064-0.238c-0.002-0.087-0.004-0.178-0.006-0.266
		c-0.002-0.125,0.054-0.232,0.053-0.373c-0.003-0.051,0.117-0.254,0.053-0.275c-0.036-0.014-0.067-0.03-0.091-0.042
		c0.009-0.035,0.011-0.062-0.009-0.07c-0.133-0.052-0.144-0.103-0.253-0.181c-0.014-0.014-0.026-0.021-0.036-0.035
		c0-0.027,0.032-0.062,0.044-0.136c-0.005-0.013-0.029-0.025-0.045-0.041c-0.003,0-0.005-0.003-0.008-0.007s-0.007-0.01-0.01-0.018
		c-0.004-0.023,0.003-0.066-0.03-0.093c-0.036-0.022-0.066-0.028-0.095-0.033c-0.053-0.007-0.094,0.009-0.112,0.021
		c-0.02,0.009-0.026,0.015-0.026,0.015c-0.033,0.029-0.028,0.068-0.033,0.096l0,0c-0.018,0.01-0.032,0.017-0.032,0.027v0.004
		c-0.012,0.012-0.027,0.021-0.032,0.03c0.01,0.067,0.037,0.101,0.042,0.128c-0.01,0.013-0.024,0.027-0.049,0.042
		c-0.108,0.083-0.117,0.14-0.254,0.192c-0.017,0.006-0.013,0.037-0.003,0.072c-0.023,0.014-0.049,0.028-0.081,0.041
		c-0.064,0.025,0.052,0.223,0.052,0.275c-0.004,0.143,0.055,0.242,0.051,0.372c0,0.09-0.002,0.174-0.007,0.264
		c-0.005,0.082-0.073,0.164-0.062,0.238c0.005,0.069,0.054,0.146,0.11,0.21l-0.389,0.031l-0.007,0.494
		c-0.018,0.025-0.018,0.058-0.002,0.084l-0.016,1.107l-1.508,0.137v3.404l2.417-0.037c0,0-0.007-1.324-0.01-1.347v-0.085
		c0,0,0.022-0.041,0.04-0.041c0.02,0,1.37-0.109,1.427-0.124c0.005-0.004,0.005-0.021,0.014-0.041
		c0.016-0.019,0.056-0.083,0.076-0.108c0.02-0.021,0.245-0.053,0.267-0.053s0.083-0.027,0.113-0.034
		c0.027-0.007,0.141,0.005,0.16,0.005c0.021,0.002,0.047-0.033,0.066-0.052c0.016-0.013,0.05-0.042,0.05-0.042
		s0.082-0.021,0.119-0.021c0.037,0.002,0.075,0.015,0.142,0.026c0.065,0.011,0.15-0.022,0.15-0.022s0.037-0.036,0.057-0.043
		c0.02-0.004,0.074-0.012,0.095-0.006c0.023,0.002,0.064,0,0.064,0l0.028,0.002c0,0,0.017,0.023,0.035,0.006
		c0.021-0.016,0.061,0.013,0.061,0.013s0.024-0.021,0.041-0.067c0.004-0.016,0.021-0.043,0.048-0.104
		c0.007-0.014,0.021-0.053,0.029-0.067c0.007-0.013,0.011-0.038,0.019-0.053c0.027-0.063,0.052-0.108,0.052-0.108
		s0.017-0.045,0.027-0.062c0.008-0.024,0.022-0.037,0.042-0.065c0.02-0.029,0.026-0.029,0.026-0.029s0.018-0.037,0.039-0.065
		c0.022-0.028,0.07-0.125,0.084-0.149c0.019-0.021,0.082-0.14,0.101-0.16c0.021-0.019,0.075-0.082,0.075-0.082l0.021-0.072
		c0,0,0.113-0.319,0.156-0.376c0.044-0.058,0.144-0.263,0.17-0.313c0.024-0.056,0.103-0.254,0.12-0.293
		c0.016-0.043,0.094-0.258,0.103-0.285c0.009-0.031,0.09-0.237,0.097-0.269c0.006-0.022,0.062-0.166,0.074-0.196
		c0.013-0.024,0.053-0.154,0.067-0.172c0.019-0.02,0.073-0.121,0.073-0.137s0.052-0.156,0.077-0.204
		c0.024-0.044,0.064-0.149,0.084-0.179c0.02-0.024,0.076-0.115,0.084-0.143c0.011-0.027,0.051-0.091,0.057-0.104
		c0.007-0.016,0.076-0.112,0.093-0.143c0.019-0.037,0.091-0.107,0.107-0.132c0.017-0.021,0.05-0.087,0.065-0.112
		c0.016-0.026,0.072-0.131,0.083-0.168c0.008-0.037,0.044-0.135,0.054-0.168c0.011-0.039,0.082-0.188,0.087-0.215
		c0.003-0.027,0.056-0.172,0.073-0.203c0.018-0.03,0.021-0.088,0.039-0.123c0.016-0.031,0.074-0.133,0.095-0.172
		c0.019-0.041,0.031-0.098,0.052-0.131c0.019-0.035,0.062-0.105,0.073-0.134c0.014-0.028,0.06-0.097,0.075-0.129
		c0.018-0.037,0.035-0.051,0.064-0.101c0.029-0.047,0.057-0.082,0.074-0.106c0.017-0.026,0.051-0.083,0.071-0.108
		c0.017-0.021,0.038-0.049,0.038-0.049s0.02-0.117,0.035-0.154c0.016-0.041,0.033-0.076,0.033-0.076s0.011-0.219,0.03-0.26
		c0.019-0.039,0.044-0.129,0.055-0.16c0.015-0.031,0.02-0.08,0.02-0.08s0.068-0.141,0.086-0.172
		c0.017-0.031,0.051-0.104,0.056-0.125c0.002-0.022,0.057-0.178,0.071-0.197c0.013-0.021,0.068-0.071,0.068-0.071
		s0.049-0.122,0.058-0.146c-0.003,0.009,0.041-0.112,0.049-0.133c0.009-0.02,0.036-0.088,0.069-0.132
		c0.035-0.043,0.061-0.102,0.084-0.145c0.027-0.044,0.1-0.149,0.116-0.179c0.016-0.026,0.085-0.105,0.125-0.125
		c0.043-0.023,0.151-0.08,0.185-0.082c0.033,0,0.071-0.006,0.096-0.002c0.021,0.002,0.042-0.008,0.056-0.015
		c0.014-0.009,0.044-0.044,0.073-0.051c0.027-0.007,0.052-0.028,0.069-0.04c0.019-0.014,0.081-0.027,0.102-0.036
		c0.023-0.006,0.068-0.019,0.084-0.028c0.016-0.01,0.039-0.022,0.067-0.025c0.026,0,0.076-0.026,0.094-0.026
		c0.021,0,0.061-0.018,0.088-0.018c0.027-0.001,0.071-0.017,0.089-0.017c0.015,0,0.05-0.019,0.072-0.019
		c0.019,0,0.057-0.019,0.057-0.019s0.02-0.004,0.042-0.01c0.017-0.005,0.067-0.005,0.081-0.016c0.013-0.001,0.084-0.032,0.142-0.055
		c0.057-0.018,0.107-0.049,0.163-0.075c0.056-0.026,0.113-0.054,0.13-0.066c0.017-0.007,0.034-0.022,0.034-0.022
		s0.032-0.043,0.067-0.08c0.036-0.035,0.184-0.16,0.229-0.211c0.047-0.045,0.141-0.129,0.176-0.168
		c0.029-0.035,0.09-0.135,0.114-0.172c0.023-0.037,0.093-0.16,0.104-0.192c0.01-0.029,0.075-0.158,0.101-0.185
		c0.025-0.025,0.105-0.066,0.137-0.082c0.028-0.018,0.071-0.031,0.071-0.031s-0.007-0.049-0.007-0.07
		c0-0.018-0.015-0.059-0.015-0.059s-0.046-0.15-0.049-0.192c-0.003-0.039-0.007-0.165-0.007-0.165l0.003-0.086
		c0,0-0.029,0.025-0.057,0.031c-0.026,0.004-0.068-0.012-0.098-0.055c-0.018-0.041-0.025-0.121-0.036-0.143
		c-0.004-0.023-0.041-0.107-0.041-0.128c-0.007-0.021-0.022-0.069-0.027-0.089c-0.008-0.02-0.008-0.036-0.022-0.042
		c-0.019-0.007-0.031-0.033-0.047-0.033c-0.02,0.002-0.032,0.008-0.042-0.008c-0.008-0.013-0.021-0.013-0.035-0.013
		c-0.019,0-0.042-0.028-0.063-0.041c-0.026-0.012-0.097-0.066-0.111-0.082c-0.013-0.012-0.077-0.062-0.095-0.088
		c-0.017-0.025-0.037-0.176-0.032-0.205c0.008-0.037,0.008-0.149,0.008-0.149c0.005-0.015,0.01-0.08,0.01-0.08
		s0.003-0.124,0.006-0.151c0-0.031,0.004-0.074,0.02-0.094c0.02-0.02,0.026-0.059,0.026-0.059s0.006-0.086,0.022-0.112
		c0.017-0.026,0.036-0.065,0.06-0.101c0.021-0.033,0.059-0.082,0.077-0.094c0.019-0.015,0.052-0.052,0.071-0.062
		c0.02-0.007,0.02-0.05,0.039-0.078c0.019-0.026,0.039-0.084,0.051-0.104c0.007-0.025,0.023-0.062,0.023-0.062
		s0.019-0.057,0.019-0.076c-0.001-0.021,0.071-0.174,0.083-0.203c0.017-0.022,0.148-0.189,0.233-0.238
		c0.085-0.051,0.116-0.057,0.116-0.057s0.07-0.035,0.085-0.039c0.013,0,0.069-0.044,0.133-0.039c0,0,0.081-0.047,0.128-0.053
		l0.062-0.01c0,0,0.064-0.071,0.075-0.09c0.015-0.021,0.109-0.086,0.146-0.096c0.04-0.01,0.083-0.026,0.083-0.026
		s0.08-0.05,0.114-0.058c0.034-0.004,0.052-0.024,0.112-0.029c0.061-0.006,0.169,0,0.205,0c0.041,0.005,0.158,0.045,0.183,0.052
		c0.023,0.006,0.103,0.026,0.121,0.026c0.018,0.006,0.119,0.049,0.136,0.056c0.019,0.011,0.064,0.041,0.087,0.056
		c0.018,0.02,0.094,0.061,0.109,0.072c0.015,0.015,0.054,0.036,0.064,0.051c0.015,0.02,0.054,0.062,0.081,0.079
		c0.024,0.015,0.083,0.079,0.102,0.103c0.02,0.022,0.082,0.074,0.114,0.094c0.027,0.016,0.12,0.092,0.155,0.119
		c0.033,0.027,0.056,0.08,0.064,0.101c0.003,0.021,0.018,0.084,0.018,0.128c0.002,0.038,0.002,0.182,0.002,0.182
		s0.012,0.006,0.041,0.024c0.028,0.021,0.083,0.086,0.096,0.115c0.011,0.03,0.023,0.083,0.037,0.12
		c0.012,0.031,0.02,0.097,0.036,0.115c0.012,0.015,0.019,0.002,0.03,0.041c0.009,0.039,0.01,0.071,0.019,0.082
		c0.008,0.016,0.027,0.043,0.022,0.067c-0.001,0.022,0,0.079,0.01,0.093c0.012,0.012,0.028,0.055,0.028,0.074
		s0.002,0.073,0.008,0.084c0.005,0.016,0.001,0.066-0.005,0.098c-0.01,0.033-0.03,0.066-0.04,0.103
		c-0.009,0.03-0.026,0.069-0.03,0.103c-0.001,0.033-0.008,0.069-0.026,0.09c-0.014,0.015-0.013,0.06-0.013,0.088
		c0,0.029-0.014,0.043-0.034,0.059c-0.02,0.018-0.035,0.052-0.035,0.052s-0.042,0.019-0.059,0.035
		c-0.022,0.017-0.071,0.027-0.081,0.046c-0.009,0.023-0.088,0.072-0.104,0.104c-0.014,0.021-0.039,0.084-0.043,0.125
		c0,0.045,0.008,0.078-0.016,0.111c-0.031,0.038-0.06,0.064-0.112,0.047c-0.052-0.015-0.066-0.026-0.066-0.026
		s-0.023-0.013-0.037,0.002c-0.012,0.015-0.018,0.039-0.018,0.075c0,0.039-0.007,0.121-0.016,0.195
		c-0.011,0.074-0.049,0.217-0.09,0.277l-0.002,0.15l0.013,0.043l0.033,0.015c0,0,0.126,0.069,0.188,0.144
		c0.061,0.07,0.161,0.228,0.176,0.275c0.013,0.044,0.076,0.182,0.097,0.191c0.02,0.016,0.193,0.146,0.23,0.172
		c0.032,0.021,0.204,0.16,0.228,0.184c0.029,0.031,0.129,0.139,0.149,0.158c0.021,0.02,0.137,0.085,0.167,0.118
		c0,0,0.042,0.032,0.059,0.032c0.021,0,0.145,0.029,0.168,0.035c0.025,0,0.078,0.006,0.09,0.013c0.017,0.006,0.088,0.03,0.088,0.03
		s0.103,0.019,0.121,0.028c0.013,0.009,0.112,0.054,0.112,0.054l0.098,0.032c0,0,0.116,0.017,0.14,0.028
		c0.027,0.007,0.095,0.046,0.117,0.051c0.023,0,0.092,0.038,0.117,0.055c0.027,0.02,0.055,0.049,0.055,0.049
		s0.046-0.021,0.068-0.021c0.025,0,0.072,0.021,0.098,0.036c0.026,0.01,0.108,0.075,0.122,0.088c0.01,0.013,0.086,0.067,0.095,0.084
		c0.012,0.019,0.042,0.042,0.055,0.054c0.013,0.01,0.042,0.041,0.059,0.053c0.015,0.01,0.072,0.082,0.082,0.104
		c0.011,0.02,0.075,0.113,0.082,0.146c0.009,0.035,0.014,0.115,0.009,0.146c-0.007,0.029-0.016,0.062-0.007,0.089
		c0.01,0.026,0.044,0.068,0.083,0.092c0.036,0.021,0.112,0.082,0.126,0.105c0.012,0.023,0.032,0.083,0.038,0.111
		c0.004,0.024,0.062,0.146,0.103,0.207c0.038,0.059,0.075,0.102,0.101,0.156c0.023,0.053,0.077,0.156,0.096,0.199
		c0.017,0.047,0.04,0.114,0.055,0.143c0.021,0.033,0.057,0.082,0.068,0.102c0.009,0.02,0.025,0.09,0.046,0.113
		c0.02,0.021,0.039,0.1,0.045,0.123s0.052,0.082,0.069,0.094c0.021,0.007,0.09,0.077,0.127,0.087c0.032,0.013,0.078,0.065,0.1,0.095
		c0.018,0.031,0.128,0.204,0.157,0.241c0.03,0.04,0.126,0.163,0.133,0.175c0.005,0.014,0.066,0.108,0.066,0.108
		s0.049,0.096,0.074,0.116c0.024,0.018,0.062,0.057,0.085,0.092c0.024,0.038,0.079,0.145,0.117,0.216
		c0.032,0.071,0.078,0.185,0.088,0.206c0.011,0.023,0.041,0.1,0.041,0.1s0.037,0.031,0.073,0.082
		c0.038,0.051,0.072,0.113,0.14,0.192c0.069,0.071,0.112,0.135,0.124,0.153c0.013,0.021,0.053,0.082,0.076,0.131
		c0.025,0.046,0.082,0.165,0.095,0.209c0.012,0.045,0.042,0.113,0.067,0.152c0.023,0.039,0.048,0.133,0.078,0.164
		c0.032,0.035,0.103,0.146,0.14,0.193c0.037,0.044,0.087,0.132,0.109,0.165c0.021,0.031,0.046,0.101,0.079,0.14
		c0.032,0.033,0.056,0.082,0.073,0.106c0.016,0.032,0.037,0.071,0.037,0.097c0,0,0.021,0.051,0.13,0.166
		c0.106,0.108,0.219,0.318,0.233,0.35c0.014,0.029,0.086,0.15,0.095,0.205c0.011,0.053,0.086,0.264,0.101,0.285
		c0.01,0.021,0.067,0.152,0.081,0.168c0.014,0.018,0.052,0.156,0.063,0.174c0.011,0.017,0.086,0.181,0.096,0.207
		c0.016,0.021,0.051,0.119,0.071,0.143c0.021,0.025,0.045,0.093,0.064,0.124c0.021,0.032,0.039,0.083,0.05,0.103
		c0.016,0.018,0.035,0.09,0.049,0.115c0.012,0.028,0.037,0.137,0.043,0.151c0.004,0.012,0.022,0.096,0.022,0.096
		s0.112,0.127,0.144,0.144c0.036,0.018,0.076,0.098,0.076,0.098l0.025,0.066c0,0,0.058,0.057,0.076,0.072
		c0.014,0.012,0.046,0.096,0.057,0.135c0.005,0.032,0.028,0.144,0.028,0.18c0.004,0.031,0.012,0.099,0.019,0.119
		c0.007,0.022,0.032,0.123,0.041,0.146c0.012,0.026,0.02,0.108,0.02,0.108s0.033,0.079,0.052,0.097
		c0.02,0.016,0.041,0.066,0.041,0.066l0.023,0.029c0,0,0.041,0.002,0.064,0c0.022-0.006,0.074,0.002,0.096,0.008
		c0.022,0.006,0.054,0.041,0.054,0.041s0.088,0.031,0.156,0.021c0.063-0.01,0.101-0.023,0.138-0.023
		c0.039,0,0.121,0.023,0.121,0.023s0.036,0.023,0.051,0.044c0.017,0.015,0.045,0.047,0.063,0.046c0.022,0,0.284-0.035,0.312-0.027
		c0.032,0.008,0.077,0.013,0.101,0.013c0.025-0.001,0.084,0.026,0.104,0.052c0.019,0.021,0.061,0.089,0.074,0.108
		c0.015,0.021,0.029,0.077,0.045,0.1c0.014,0.022,0.042,0.104,0.042,0.118c0,0.02,0.021,0.059,0.023,0.075
		c0,0.018,0.021,0.093,0.021,0.093s0.032,0.021,0.035,0.036c0.002,0.002,0.77,0.021,2.373,0.039v-3.058L54.607,66.761z
		 M41.177,52.172c0,0.044-0.029,0.08-0.067,0.083L39.9,52.4c-0.011,0-0.021-0.002-0.03-0.006c-0.029-0.003-0.053-0.029-0.053-0.064
		v-5.476c0-0.527,0.324-0.953,0.72-0.953c0.051,0,0.098,0.006,0.146,0.022c0.316,0.081,0.494,0.469,0.494,0.936V52.172z
		 M42.97,36.913c0-0.161,0.138-0.346,0.302-0.346c0.025,0,0.045,0.005,0.07,0.012c0.144,0.032,0.251,0.194,0.251,0.337v1.704
		c0,0.011-0.01,0.023-0.019,0.023h-0.569c-0.003,0-0.006-0.002-0.007-0.004h-0.01c-0.012,0-0.018-0.011-0.018-0.024V36.913z
		 M42.25,38.783c-0.012,0.003-0.022-0.003-0.022-0.019v-1.729c0.022-0.167,0.128-0.263,0.248-0.285
		c0.019-0.003,0.04-0.001,0.059,0.003c0.104,0.015,0.209,0.147,0.209,0.284v1.633c0,0.014-0.009,0.024-0.019,0.024l-0.46,0.093
		C42.26,38.792,42.254,38.786,42.25,38.783 M44.294,52.122c0,0.042-0.029,0.074-0.067,0.074h-1.864c-0.01,0-0.019-0.002-0.025-0.004
		c-0.032-0.007-0.058-0.037-0.058-0.073v-5.651c0-0.542,0.421-1.081,1-1.081c0.075,0,0.149,0.01,0.218,0.028
		c0.472,0.108,0.797,0.581,0.797,1.059L44.294,52.122L44.294,52.122z M44.326,38.768c0,0.013-0.008,0.023-0.019,0.018l-0.453-0.093
		h-0.002l-0.014-0.005c-0.011,0-0.02-0.01-0.02-0.022v-1.632c0-0.157,0.125-0.308,0.256-0.285c0.006,0.001,0.007,0.003,0.012,0.003
		c0,0.003,0.004,0,0.006,0.003c0.117,0.016,0.214,0.126,0.233,0.281L44.326,38.768L44.326,38.768z M46.763,52.33
		c0,0.042-0.031,0.075-0.066,0.069l-1.212-0.145c-0.004-0.001-0.007-0.001-0.009-0.003l-0.009-0.002
		c-0.034-0.002-0.066-0.039-0.066-0.082v-5.315c0-0.527,0.229-0.953,0.627-0.953c0.052,0,0.101,0.006,0.149,0.022
		c0.334,0.081,0.586,0.469,0.586,0.936V52.33z"/>
	<path fill="#FFFFFF" d="M37.214,75.747c0-0.046-0.044-0.072-0.131-0.075c-0.291-0.016-0.469-0.104-0.528-0.27l-0.033-0.174
		l0.007-0.131v-2.695c0-0.072,0-0.137,0.006-0.192l0.027-0.283c0.003-0.058,0.006-0.1,0.006-0.122c0-0.033-0.006-0.058-0.011-0.076
		c-0.013-0.068-0.139-0.074-0.197-0.059c-0.034,0.008-0.055,0.021-0.079,0.043l-0.147,0.135c-0.127,0.116-0.455,0.211-0.758,0.276
		c-0.162,0.038-0.27,0.067-0.322,0.095c-0.053,0.029-0.081,0.069-0.081,0.12c0,0.005,0.004,0.005,0.004,0.009
		c0.003,0.016,0.007,0.028,0.014,0.039c0.003,0.002,0.006,0.008,0.008,0.01c0.018,0.02,0.042,0.031,0.071,0.037
		c0.039,0.01,0.099,0.002,0.166-0.029l0.08-0.038c0.033-0.015,0.077-0.021,0.12-0.026c0.134,0.021,0.201,0.129,0.201,0.322v2.395
		l0.004,0.121c0,0.182-0.033,0.305-0.099,0.37c-0.064,0.065-0.206,0.113-0.424,0.148c-0.052,0.008-0.08,0.036-0.08,0.079
		c0,0.055,0.028,0.08,0.078,0.08c0.031,0,0.075-0.004,0.136-0.01c0.125-0.016,0.446-0.022,0.672-0.027
		c0.148,0.002,0.271,0.006,0.366,0.017c0.229,0.017,0.61,0.027,0.652,0.027c0.184,0,0.277-0.038,0.277-0.11L37.214,75.747z"/>
	<path fill="#FFFFFF" d="M44.708,74.316l-0.1-0.006c-0.083,0-0.124-0.016-0.125-0.049c0-0.021,0.01-0.048,0.034-0.08
		c0.021-0.023,0.042-0.056,0.073-0.101c0.179-0.279,0.337-0.545,0.475-0.722l0.358-0.436l0.003,1.204l0.003,0.076
		c0,0.099-0.038,0.151-0.114,0.151L44.708,74.316z M46.827,74.025L46.827,74.025c-0.028,0-0.048,0.019-0.061,0.057
		c-0.049,0.139-0.154,0.208-0.315,0.208c-0.092,0-0.145-0.017-0.16-0.051l-0.015-0.084v-1.913l0.001-0.28l0.004-0.269
		c0-0.053-0.017-0.082-0.051-0.082h-0.002h-0.002c-0.054,0-0.244,0.184-0.573,0.547c-0.329,0.367-0.699,0.81-1.114,1.328
		c-0.557,0.697-0.839,1.097-0.847,1.199c-0.003,0.057,0.015,0.092,0.044,0.106c0.027,0.017,0.09,0.022,0.182,0.022h1.244
		c0.101,0,0.203,0.052,0.226,0.067l0.027,0.072l0.008,0.101v0.693c0,0.123-0.011,0.23-0.035,0.328
		c-0.008,0.04-0.013,0.07-0.013,0.091c0,0.054,0.026,0.079,0.076,0.074h0.004h0.009c0.021,0,0.049-0.009,0.084-0.017
		c0.042-0.014,0.097-0.025,0.159-0.035l0.417-0.073c0.097,0,0.146-0.036,0.151-0.109v-0.991c0-0.09,0.006-0.142,0.022-0.164
		c0.016-0.019,0.056-0.029,0.12-0.029h0.106c0.135,0,0.226-0.027,0.268-0.079c0.041-0.05,0.069-0.128,0.081-0.316
		c0.008-0.138,0.02-0.229,0.028-0.266c0.003-0.024,0.008-0.044,0.008-0.063C46.911,74.05,46.882,74.025,46.827,74.025"/>
	<path fill="#FFFFFF" d="M51.11,73.609c-0.197-0.172-0.458-0.269-0.773-0.293c-0.046-0.006-0.095-0.01-0.151-0.012h-0.018h-0.009
		H50.15c-0.104,0-0.358,0.008-0.524,0.023c-0.02-0.016-0.03-0.039-0.03-0.074c0-0.047,0.004-0.095,0.015-0.152
		c0.015-0.09,0.028-0.187,0.04-0.293c0.025-0.197,0.107-0.293,0.243-0.293h1.151c0.081,0,0.13-0.01,0.145-0.031
		c0.021-0.021,0.05-0.107,0.093-0.258l0.053-0.188l0.07-0.242c0.013-0.037,0.018-0.066,0.018-0.095c0-0.034-0.018-0.052-0.053-0.052
		l0,0H51.37c-0.03,0-0.051,0.009-0.066,0.026l-0.126,0.121c-0.063,0.066-0.137,0.097-0.22,0.097h-1.472
		c-0.092,0-0.146,0.015-0.165,0.043c-0.018,0.029-0.04,0.144-0.067,0.34l-0.06,0.438c-0.024,0.158-0.043,0.302-0.056,0.425
		c-0.032,0.25-0.059,0.407-0.072,0.473c-0.019,0.078-0.027,0.13-0.027,0.158c0,0.092,0.035,0.143,0.104,0.158
		c0.004,0.002,0.013,0.004,0.031,0.004h0.004h0.002c0.033,0,0.089,0,0.168-0.016c0.007-0.002,0.011-0.002,0.018-0.003
		c0.157-0.024,0.268-0.033,0.34-0.033c0.181,0,0.34,0.04,0.479,0.115c0.013,0.008,0.026,0.013,0.039,0.021
		c0.042,0.027,0.085,0.057,0.124,0.092c0.167,0.154,0.25,0.348,0.25,0.58c0,0.281-0.106,0.52-0.32,0.711
		c-0.209,0.193-0.471,0.289-0.776,0.291c-0.185-0.002-0.426-0.056-0.724-0.168c-0.024-0.006-0.042-0.01-0.056-0.01H48.72
		c-0.055,0-0.083,0.026-0.083,0.084c0,0.065,0.116,0.137,0.344,0.213c0.226,0.078,0.437,0.116,0.624,0.116h0.002h0.001
		c0.448,0,1.078-0.146,1.389-0.435c0.311-0.29,0.469-0.645,0.469-1.061C51.461,74.084,51.344,73.812,51.11,73.609"/>
	<path fill="#FFFFFF" d="M39.827,74.076c0.032-0.041,0.078-0.082,0.135-0.119c0.004-0.003,0.008-0.005,0.013-0.006h0.003
		c0.162,0.07,0.282,0.124,0.359,0.15l0.323,0.121c0.404,0.152,0.606,0.413,0.606,0.781c0,0.194-0.068,0.352-0.2,0.479
		c-0.13,0.108-0.315,0.177-0.525,0.177c-0.208,0-0.392-0.068-0.518-0.177c-0.027-0.021-0.055-0.043-0.08-0.072
		c-0.19-0.208-0.286-0.475-0.286-0.795C39.658,74.393,39.714,74.209,39.827,74.076 M40.038,72.102
		c0.055-0.045,0.119-0.08,0.187-0.109c0.063-0.025,0.138-0.041,0.22-0.041c0.089,0,0.172,0.02,0.238,0.048
		c0.081,0.038,0.157,0.089,0.227,0.155c0.156,0.154,0.233,0.345,0.233,0.565c0,0.181-0.049,0.329-0.148,0.448
		c-0.074,0.092-0.161,0.148-0.259,0.171c-0.184-0.028-0.376-0.11-0.577-0.25c-0.225-0.153-0.335-0.332-0.335-0.536
		C39.824,72.373,39.895,72.221,40.038,72.102 M41.254,73.584c-0.12-0.049-0.178-0.083-0.176-0.105
		c0.003-0.019,0.056-0.045,0.162-0.082c0.172-0.058,0.311-0.158,0.414-0.293c0.103-0.137,0.156-0.291,0.156-0.463
		c0-0.266-0.106-0.485-0.317-0.656c-0.208-0.172-0.604-0.256-0.93-0.256c-0.384,0-0.82,0.107-1.07,0.321
		c-0.245,0.214-0.368,0.489-0.368,0.821c0,0.349,0.147,0.631,0.444,0.849c0.046,0.035,0.065,0.058,0.061,0.071
		c0,0.011-0.021,0.027-0.056,0.049c-0.419,0.227-0.624,0.535-0.624,0.919c0,0.349,0.126,0.63,0.381,0.843
		c0.253,0.215,0.715,0.321,1.128,0.321c0.426,0,0.889-0.116,1.147-0.348c0.26-0.23,0.386-0.538,0.386-0.92
		C41.992,74.148,41.748,73.795,41.254,73.584"/>
</g>
</svg>
